<svg width="80" height="67" viewBox="0 0 80 67" fill="none" xmlns="http://www.w3.org/2000/svg">
<path d="M79.6775 25.3865L65.4589 1.15788C64.8069 0.047095 63.3809 -0.329624 62.2658 0.314438L53.7442 5.23428L46.0684 2.411C43.6678 1.52803 41.0203 1.75506 38.8052 3.03413L27.1494 9.76365L16.8161 3.79756C16.2667 3.48037 15.6125 3.39959 15.0022 3.57319C14.3922 3.74694 13.8786 4.16037 13.5788 4.71959L0.278613 29.5166C-0.319511 30.6321 0.0759571 32.0213 1.17221 32.6541L6.44986 35.7013L3.80314 40.2855C1.86455 43.6432 3.01908 47.9518 6.37674 49.8904C7.93517 50.7901 9.69814 51.0225 11.3342 50.6786C11.8544 52.2674 12.9372 53.6782 14.4956 54.5779C16.0541 55.4776 17.817 55.71 19.4531 55.3661C19.9733 56.9549 21.0561 58.3657 22.6145 59.2654C24.173 60.1651 25.9359 60.3975 27.572 60.0536C28.0924 61.6425 29.1752 63.0532 30.7336 63.9529C34.0913 65.8915 38.3998 64.7369 40.3384 61.3793L40.6413 60.8547L49.4367 65.9329C52.7944 67.8715 57.103 66.7169 59.0416 63.3593C59.4991 62.5668 59.7822 61.7211 59.9069 60.8665C62.8975 61.6541 66.1695 60.3883 67.7884 57.5841C68.3459 56.6185 68.6462 55.5741 68.7133 54.5302C71.2717 54.6644 73.8158 53.3943 75.1822 51.0275C76.5486 48.6608 76.3765 45.8226 74.9811 43.674C75.8517 43.094 76.6059 42.3116 77.1634 41.346C79.0484 38.0811 78.0083 33.9179 74.8625 31.9079L79.1453 28.3821C80.0351 27.6499 80.2606 26.3799 79.6775 25.3865ZM41.1489 7.09366C42.1558 6.51209 43.3588 6.40912 44.4505 6.81053L53.1564 10.0127C53.8095 10.2529 54.5348 10.1905 55.1373 9.84272L62.5941 5.53756L74.6225 26.0343L70.5345 29.3997L42.3836 13.1466C41.6584 12.7279 40.765 12.7279 40.0398 13.1466L27.0834 20.6269C26.0052 21.2793 24.4892 20.8732 23.8819 19.7691C23.2295 18.6912 23.6358 17.1747 24.7397 16.5676L41.1489 7.09366ZM8.72064 45.8308C7.60142 45.1846 7.21658 43.7485 7.86283 42.6293L11.7691 35.8635C12.4153 34.7443 13.8514 34.3594 14.9706 35.0057C16.0899 35.6519 16.4747 37.088 15.8285 38.2072L11.9222 44.973C11.2761 46.0922 9.83986 46.4771 8.72064 45.8308ZM16.8395 50.5183C15.7203 49.8721 15.3355 48.436 15.9817 47.3168L21.4505 37.8446C22.0967 36.7252 23.5328 36.3405 24.652 36.9868C25.7713 37.633 26.1561 39.0691 25.5099 40.1883L20.0411 49.6605C19.395 50.7797 17.9588 51.1646 16.8395 50.5183ZM24.9584 55.2058C23.8392 54.5596 23.4544 53.1235 24.1006 52.0043L28.0069 45.2385C28.6531 44.1193 30.0892 43.7344 31.2084 44.3807C32.3277 45.0269 32.7125 46.463 32.0663 47.5822L28.16 54.348C27.5139 55.4672 26.0778 55.8521 24.9584 55.2058ZM33.0775 59.8935C31.9583 59.2472 31.5733 57.811 32.2195 56.6918L34.5633 52.6322C35.2095 51.513 36.6458 51.1282 37.765 51.7744C38.8842 52.4207 39.2691 53.8568 38.6228 54.976L36.2791 59.0355C35.633 60.1549 34.1969 60.5397 33.0775 59.8935ZM71.1231 48.6838C70.4769 49.803 69.0408 50.1879 67.9216 49.5416L55.7431 42.5104C54.6222 41.8632 53.1887 42.2472 52.5416 43.3682C51.8944 44.4891 52.2784 45.9226 53.3994 46.5697L62.8714 52.0385C63.9906 52.6847 64.3755 54.1208 63.7292 55.24C63.083 56.3593 61.6469 56.7441 60.5277 56.0979L51.0556 50.6291C49.9347 49.9819 48.5012 50.366 47.8541 51.4869C47.2069 52.6079 47.5909 54.0413 48.7119 54.6885L54.1245 57.8135C55.2437 58.4597 55.6286 59.8958 54.9823 61.015C54.3361 62.1343 52.9 62.5191 51.7808 61.8729L42.9613 56.7808C44.4913 53.5138 43.2897 49.551 40.1089 47.7146C39.1433 47.1571 38.0989 46.8566 37.0548 46.7896C37.1891 44.2311 35.9191 41.6871 33.5523 40.3205C32.5867 39.763 31.5424 39.4627 30.4984 39.3957C30.6327 36.8372 29.3625 34.2932 26.9958 32.9268C24.6291 31.5604 21.7909 31.7324 19.6424 33.1279C19.0624 32.2572 18.28 31.503 17.3144 30.9455C14.6119 29.3852 11.2944 29.8301 9.09142 31.8132L5.4833 29.7305L16.5666 9.06631L22.4619 12.4701L22.3959 12.5082C20.7695 13.4472 19.6061 14.9635 19.1199 16.7776C18.6339 18.5916 18.8833 20.4865 19.8224 22.1129C20.7614 23.7393 22.2777 24.9027 24.0917 25.389C25.9058 25.8747 27.8006 25.6255 29.427 24.6865L41.2116 17.8827L72.2462 35.8008C73.3655 36.4471 73.7503 37.8832 73.104 39.0024C72.4578 40.1216 71.0217 40.5065 69.9025 39.8602L60.4305 34.3915C59.3095 33.7443 57.8761 34.1283 57.2289 35.2493C56.5817 36.3702 56.9658 37.8036 58.0867 38.4508L70.2651 45.4821C71.3845 46.1283 71.7694 47.5646 71.1231 48.6838Z" fill="url(#paint0_linear)"/>
<defs>
<linearGradient id="paint0_linear" x1="79.9998" y1="73.5608" x2="15.8854" y2="-15.6029" gradientUnits="userSpaceOnUse">
<stop stop-color="#276FFF"/>
<stop offset="1" stop-color="#99C5FF"/>
</linearGradient>
</defs>
</svg>
