<svg width="113" height="23" viewBox="0 0 113 23" fill="none" xmlns="http://www.w3.org/2000/svg">
<path d="M28.432 19V7.384H26.24V6.04H32.368V7.384H30.24V19H28.432ZM36.6734 19.144C35.9267 19.144 35.3027 18.984 34.8014 18.664C34.3107 18.344 33.9374 17.9013 33.6814 17.336C33.4254 16.7707 33.276 16.1147 33.2334 15.368L34.8334 14.936C34.8654 15.3947 34.9347 15.8373 35.0414 16.264C35.1587 16.6907 35.3454 17.0427 35.6014 17.32C35.8574 17.5867 36.2147 17.72 36.6734 17.72C37.1427 17.72 37.4947 17.592 37.7294 17.336C37.9747 17.0693 38.0974 16.6907 38.0974 16.2C38.0974 15.6133 37.964 15.144 37.6974 14.792C37.4307 14.4293 37.0947 14.0667 36.6894 13.704L34.5134 11.784C34.0867 11.4107 33.772 11.0053 33.5694 10.568C33.3667 10.12 33.2654 9.57067 33.2654 8.92C33.2654 7.97067 33.5374 7.23467 34.0814 6.712C34.6254 6.18933 35.3667 5.928 36.3054 5.928C36.8174 5.928 37.2654 5.99733 37.6494 6.136C38.044 6.264 38.3694 6.46667 38.6254 6.744C38.892 7.02133 39.1 7.37333 39.2494 7.8C39.4094 8.216 39.516 8.70667 39.5694 9.272L38.0334 9.688C38.0014 9.26133 37.9374 8.872 37.8414 8.52C37.7454 8.15733 37.5747 7.86933 37.3294 7.656C37.0947 7.432 36.7534 7.32 36.3054 7.32C35.8574 7.32 35.5054 7.44267 35.2494 7.688C35.004 7.92267 34.8814 8.27467 34.8814 8.744C34.8814 9.13867 34.9454 9.464 35.0734 9.72C35.212 9.976 35.4307 10.2373 35.7294 10.504L37.9214 12.424C38.412 12.8507 38.844 13.3627 39.2174 13.96C39.5907 14.5467 39.7774 15.2453 39.7774 16.056C39.7774 16.696 39.644 17.2507 39.3774 17.72C39.1107 18.1787 38.7427 18.5307 38.2734 18.776C37.8147 19.0213 37.2814 19.144 36.6734 19.144ZM44.8041 19L45.0441 6.04H46.8201L49.1081 16.552L51.4121 6.04H53.1721L53.4121 19H51.9561L51.8121 9.592L49.6201 19H48.5961L46.4201 9.592L46.2761 19H44.8041ZM54.6946 19L57.4466 6.04H59.1906L61.9586 19H60.2466L59.6546 15.736H57.0146L56.3906 19H54.6946ZM57.2546 14.44H59.4146L58.3266 8.6L57.2546 14.44ZM63.2736 19V6.04H65.8816C66.7456 6.04 67.4603 6.15733 68.0256 6.392C68.591 6.616 69.007 6.984 69.2736 7.496C69.551 7.99733 69.6896 8.65867 69.6896 9.48C69.6896 9.98133 69.6363 10.44 69.5296 10.856C69.423 11.2613 69.2523 11.608 69.0176 11.896C68.783 12.1733 68.4736 12.376 68.0896 12.504L69.9296 19H68.1856L66.4896 12.92H65.0816V19H63.2736ZM65.0816 11.624H65.7696C66.2816 11.624 66.6976 11.56 67.0176 11.432C67.3376 11.304 67.5723 11.0853 67.7216 10.776C67.871 10.4667 67.9456 10.0347 67.9456 9.48C67.9456 8.72267 67.807 8.17867 67.5296 7.848C67.2523 7.50667 66.703 7.336 65.8816 7.336H65.0816V11.624ZM71.5705 19V6.04H73.3785V12.152L76.3545 6.04H78.0345L75.4745 11.752L78.4505 19H76.6905L74.2105 12.92L73.3785 14.424V19H71.5705ZM79.4924 19V6.04H84.5164V7.384H81.3004V11.672H83.9084V12.952H81.3004V17.704H84.5484V19H79.4924ZM87.432 19V7.384H85.24V6.04H91.368V7.384H89.24V19H87.432ZM92.7134 19V6.04H94.4894V19H92.7134ZM96.5861 19V6.04H97.8181L101.498 14.648V6.04H103.002V19H101.85L98.1221 10.152V19H96.5861ZM108.127 19.16C107.317 19.16 106.666 18.9893 106.175 18.648C105.695 18.296 105.343 17.7893 105.119 17.128C104.906 16.4667 104.799 15.672 104.799 14.744V10.408C104.799 9.45867 104.895 8.65333 105.087 7.992C105.29 7.32 105.642 6.808 106.143 6.456C106.655 6.104 107.365 5.928 108.271 5.928C109.082 5.928 109.733 6.06667 110.223 6.344C110.725 6.61067 111.087 7.02667 111.311 7.592C111.535 8.14667 111.647 8.85067 111.647 9.704V10.184H109.951V9.784C109.951 9.21867 109.914 8.76 109.839 8.408C109.765 8.04533 109.61 7.77867 109.375 7.608C109.151 7.42667 108.794 7.336 108.303 7.336C107.77 7.336 107.381 7.45867 107.135 7.704C106.901 7.94933 106.751 8.28533 106.687 8.712C106.634 9.128 106.607 9.60267 106.607 10.136V14.936C106.607 15.5547 106.65 16.072 106.735 16.488C106.831 16.904 107.007 17.2133 107.263 17.416C107.519 17.6187 107.882 17.72 108.351 17.72C108.821 17.72 109.183 17.608 109.439 17.384C109.695 17.16 109.871 16.8293 109.967 16.392C110.063 15.9547 110.111 15.4107 110.111 14.76V13.864H108.463V12.584H111.743V19H110.607L110.431 17.512C110.261 17.992 109.994 18.3867 109.631 18.696C109.269 19.0053 108.767 19.16 108.127 19.16Z" fill="#171B26"/>
<path d="M12.4864 7.22061C10.1227 7.22061 7.759 7.2136 5.39532 7.22387C4.04535 7.22994 3.07172 8.24498 3.05669 9.63074C3.05213 10.0113 3.04894 10.3918 3.05669 10.7718C3.05942 10.9058 3.0166 10.9395 2.89039 10.939C1.98146 10.9339 1.07207 10.9362 0.163136 10.9362C0.0811274 10.9362 -0.00179292 10.9558 2.95013e-05 10.8162C0.0123309 9.87213 -0.0455311 8.92572 0.222365 7.99799C0.870237 5.75968 2.94689 4.11339 5.22401 4.09518C7.59544 4.07604 9.96641 4.08864 12.3378 4.08724H12.429C12.4595 4.00133 12.3834 3.97752 12.3483 3.9397C11.8207 3.39343 11.2936 2.84669 10.7583 2.30882C10.648 2.19816 10.6352 2.1398 10.7532 2.02214C11.2585 1.51929 11.7515 1.0029 12.2522 0.495381C12.3889 0.355311 12.5028 0.194231 12.6568 0.0648996C12.7843 -0.0424873 12.834 -0.00420156 12.9251 0.0896453C13.651 0.838864 14.3791 1.5859 15.1093 2.33076C15.4674 2.69868 15.8244 3.06784 16.1804 3.43825C16.1303 3.49568 16.0829 3.55638 16.0296 3.611C15.2223 4.44084 14.414 5.26959 13.6049 6.09724C13.2345 6.47403 12.8837 6.87136 12.4864 7.22061Z" fill="#276FFF"/>
<path d="M5.87688 15.7707C8.23191 15.7707 10.5874 15.7749 12.9429 15.7675C14.1092 15.7637 15.0241 15.0204 15.2542 13.8999C15.3594 13.3863 15.3129 12.8629 15.3061 12.3441C15.3034 12.1219 15.3412 12.0439 15.5827 12.0491C16.4378 12.0677 17.2939 12.0603 18.15 12.0528C18.3076 12.0528 18.3728 12.0738 18.3687 12.262C18.3496 13.1136 18.4051 13.9671 18.191 14.8066C17.5887 17.1691 15.4856 18.8807 13.1055 18.8985C10.7879 18.9158 8.47065 18.9046 6.15298 18.9055C6.06128 18.8992 5.9695 18.9166 5.886 18.9559C6.42908 19.5034 6.97216 20.0513 7.51525 20.5994C7.7394 20.8263 7.73804 20.8277 7.5116 21.0593C6.90777 21.6803 6.30303 22.3005 5.69738 22.9199C5.61764 23.0021 5.56844 23.0413 5.46684 22.9362C4.37521 21.806 3.28038 20.6786 2.18237 19.554C2.23203 19.4961 2.27942 19.4354 2.33227 19.3808C3.1396 18.551 3.948 17.722 4.75746 16.8941C5.12787 16.5173 5.47868 16.12 5.87688 15.7707Z" fill="#276FFF"/>
<path d="M12.4864 7.22083C12.8837 6.87159 13.2345 6.47379 13.6049 6.09747C14.4165 5.27199 15.2247 4.44324 16.0296 3.61123C16.0829 3.5566 16.1303 3.49591 16.1804 3.43848C16.879 4.14848 17.5766 4.85801 18.273 5.56707C18.3482 5.64318 18.3327 5.69547 18.2644 5.75663C18.2302 5.78698 18.1997 5.822 18.1678 5.85468C16.4334 7.63233 14.7002 9.41106 12.9679 11.1909C12.8158 11.3482 12.7438 11.3253 12.608 11.1829C11.9942 10.5392 11.3733 9.9027 10.7455 9.27332C10.6466 9.17341 10.6448 9.12298 10.7455 9.02166C11.2758 8.48987 11.7975 7.94779 12.3214 7.41133C12.3798 7.3511 12.4317 7.28386 12.4864 7.22083Z" fill="#368DFF"/>
<path d="M5.87694 15.7712C5.47965 16.1204 5.12884 16.5182 4.75843 16.8945C3.94593 17.72 3.13723 18.5489 2.33233 19.3812C2.27948 19.4359 2.2321 19.4966 2.18243 19.5545C1.48505 18.8445 0.787825 18.1346 0.0907486 17.4249C0.0169405 17.3502 0.0246858 17.2993 0.0957603 17.2382C0.124463 17.2134 0.149522 17.1835 0.176402 17.1565C1.92107 15.3682 3.66513 13.5777 5.40858 11.7848C5.54526 11.6447 5.60813 11.655 5.73661 11.7894C6.35578 12.4389 6.98406 13.079 7.61508 13.7168C7.71303 13.8153 7.71759 13.8667 7.61508 13.9685C7.08976 14.4947 6.57265 15.0297 6.05417 15.5629C5.99175 15.6288 5.93571 15.7016 5.87694 15.7712Z" fill="#368DFF"/>
</svg>
