<svg width="28" height="35" viewBox="0 0 28 35" fill="none" xmlns="http://www.w3.org/2000/svg">
<path d="M18.7726 11.0662C15.2189 11.0662 11.6652 11.0556 8.11157 11.0711C6.08197 11.0802 4.61817 12.6063 4.59557 14.6897C4.58872 15.2618 4.58392 15.8339 4.59557 16.4053C4.59968 16.6067 4.53529 16.6573 4.34555 16.6566C2.97902 16.6488 1.6118 16.6523 0.245267 16.6523C0.121971 16.6523 -0.00269556 16.6818 4.43536e-05 16.4719C0.0185388 15.0526 -0.0684536 13.6297 0.334314 12.2349C1.30835 8.86973 4.43049 6.39462 7.85402 6.36724C11.4193 6.33846 14.984 6.35742 18.5493 6.35531H18.6863C18.7322 6.22615 18.6178 6.19035 18.565 6.13349C17.7718 5.3122 16.9793 4.49021 16.1745 3.68155C16.0087 3.51519 15.9895 3.42744 16.1669 3.25055C16.9266 2.49454 17.6677 1.71817 18.4205 0.955142C18.626 0.744554 18.7972 0.502379 19.0288 0.307936C19.2206 0.146485 19.2952 0.204046 19.4322 0.34514C20.5236 1.47155 21.6182 2.59468 22.716 3.71454C23.2544 4.26769 23.7912 4.8227 24.3264 5.37959C24.251 5.46593 24.1798 5.55718 24.0997 5.63931C22.8859 6.88693 21.6707 8.13291 20.4542 9.37724C19.8973 9.94373 19.3699 10.5411 18.7726 11.0662Z" fill="#276FFF"/>
<path d="M8.83563 23.9211C12.3763 23.9211 15.9176 23.9275 19.459 23.9162C21.2125 23.9106 22.588 22.7931 22.9339 21.1084C23.0921 20.3362 23.0222 19.5493 23.012 18.7695C23.0079 18.4353 23.0647 18.3181 23.4278 18.3258C24.7135 18.3539 26.0005 18.3427 27.2876 18.3314C27.5246 18.3314 27.6226 18.363 27.6164 18.6459C27.5876 19.9263 27.6712 21.2095 27.3493 22.4716C26.4437 26.0235 23.2819 28.5969 19.7035 28.6236C16.219 28.6495 12.7352 28.6327 9.25073 28.6341C9.11285 28.6247 8.97487 28.6507 8.84933 28.7099C9.66582 29.5331 10.4823 30.3567 11.2988 31.1808C11.6358 31.5219 11.6338 31.5241 11.2933 31.8722C10.3855 32.8058 9.47631 33.7383 8.56575 34.6695C8.44588 34.7931 8.3719 34.852 8.21915 34.6941C6.57794 32.9949 4.93193 31.2999 3.28113 29.6091C3.35579 29.5221 3.42703 29.4308 3.50649 29.3487C4.72027 28.1011 5.93565 26.8549 7.15263 25.6101C7.70952 25.0436 8.23696 24.4462 8.83563 23.9211Z" fill="#276FFF"/>
<path d="M18.7725 11.0662C19.3698 10.5411 19.8973 9.94304 20.4542 9.37726C21.6743 8.1362 22.8895 6.89022 24.0996 5.63933C24.1798 5.5572 24.251 5.46595 24.3264 5.37961C25.3767 6.44705 26.4254 7.5138 27.4725 8.57984C27.5855 8.69426 27.5622 8.77288 27.4595 8.86483C27.4081 8.91046 27.3622 8.96311 27.3142 9.01224C24.7068 11.6848 22.1009 14.3591 19.4966 17.0349C19.2678 17.2715 19.1596 17.2371 18.9554 17.023C18.0325 16.0552 17.0991 15.0982 16.1552 14.152C16.0066 14.0018 16.0039 13.926 16.1552 13.7736C16.9526 12.9741 17.7369 12.1591 18.5246 11.3526C18.6123 11.262 18.6903 11.1609 18.7725 11.0662Z" fill="#368DFF"/>
<path d="M8.83566 23.9211C8.23835 24.4462 7.71092 25.0443 7.15403 25.61C5.93249 26.8511 4.71665 28.0973 3.50652 29.3487C3.42706 29.4308 3.35582 29.522 3.28116 29.6091C2.23269 28.5416 1.18444 27.4744 0.136424 26.4075C0.0254574 26.2951 0.037102 26.2186 0.143959 26.1267C0.187112 26.0895 0.224786 26.0445 0.2652 26.0038C2.88821 23.3153 5.51031 20.6233 8.1315 17.9278C8.33699 17.7172 8.43152 17.7327 8.62468 17.9348C9.55557 18.9112 10.5002 19.8736 11.4488 20.8325C11.5961 20.9806 11.603 21.0578 11.4488 21.2109C10.6591 22.002 9.88162 22.8064 9.10211 23.608C9.00827 23.707 8.92402 23.8165 8.83566 23.9211Z" fill="#368DFF"/>
</svg>
