<svg width="168" height="35" viewBox="0 0 168 35" fill="none" xmlns="http://www.w3.org/2000/svg">
<path d="M42.618 28.5742V10.7926H39.3191V8.73528H48.5416V10.7926H45.339V28.5742H42.618Z" fill="white"/>
<path d="M55.0211 28.7947C53.8974 28.7947 52.9583 28.5497 52.2038 28.0599C51.4654 27.57 50.9035 26.8924 50.5182 26.027C50.133 25.1616 49.9082 24.1574 49.844 23.0144L52.252 22.3531C52.3001 23.0552 52.4045 23.7329 52.565 24.386C52.7416 25.0391 53.0225 25.578 53.4078 26.0025C53.7931 26.4107 54.3308 26.6148 55.0211 26.6148C55.7275 26.6148 56.2572 26.4189 56.6104 26.027C56.9796 25.6188 57.1642 25.0391 57.1642 24.288C57.1642 23.39 56.9636 22.6715 56.5622 22.1327C56.1609 21.5775 55.6552 21.0224 55.0452 20.4672L51.7704 17.5281C51.1282 16.9566 50.6547 16.3361 50.3497 15.6667C50.0447 14.9809 49.8922 14.14 49.8922 13.1439C49.8922 11.6907 50.3015 10.5641 51.1202 9.76396C51.9389 8.96387 53.0546 8.56383 54.4673 8.56383C55.2379 8.56383 55.9121 8.66996 56.49 8.88223C57.084 9.07817 57.5736 9.38841 57.9589 9.81295C58.3602 10.2375 58.6732 10.7763 58.898 11.4295C59.1388 12.0663 59.2993 12.8174 59.3796 13.6828L57.0679 14.3196C57.0197 13.6664 56.9234 13.0705 56.779 12.5316C56.6345 11.9765 56.3776 11.5356 56.0084 11.209C55.6552 10.8661 55.1415 10.6947 54.4673 10.6947C53.7931 10.6947 53.2633 10.8825 52.878 11.258C52.5088 11.6172 52.3242 12.1561 52.3242 12.8745C52.3242 13.4787 52.4205 13.9767 52.6132 14.3686C52.8219 14.7604 53.1509 15.1605 53.6004 15.5687L56.8994 18.5078C57.6378 19.1609 58.2879 19.9447 58.8498 20.8591C59.4117 21.7571 59.6926 22.8266 59.6926 24.0676C59.6926 25.0473 59.4919 25.8964 59.0906 26.6148C58.6893 27.3169 58.1354 27.8558 57.4291 28.2313C56.7388 28.6069 55.9362 28.7947 55.0211 28.7947Z" fill="white"/>
<path d="M67.2578 28.5742L67.619 8.73528H70.2918L73.7352 24.8269L77.2027 8.73528H79.8515L80.2127 28.5742H78.0214L77.8047 14.1726L74.5058 28.5742H72.9647L69.6898 14.1726L69.4731 28.5742H67.2578Z" fill="white"/>
<path d="M82.1428 28.5742L86.2845 8.73528H88.9092L93.075 28.5742H90.4985L89.6075 23.5777H85.6343L84.6952 28.5742H82.1428ZM85.9955 21.5939H89.2463L87.6089 12.6541L85.9955 21.5939Z" fill="white"/>
<path d="M95.054 28.5742V8.73528H98.979C100.279 8.73528 101.355 8.91489 102.206 9.27411C103.057 9.61701 103.683 10.1803 104.084 10.9641C104.501 11.7315 104.71 12.7439 104.71 14.0012C104.71 14.7686 104.63 15.4707 104.469 16.1075C104.309 16.728 104.052 17.2587 103.699 17.6995C103.345 18.1241 102.88 18.4343 102.302 18.6303L105.071 28.5742H102.447L99.8941 19.2671H97.775V28.5742H95.054ZM97.775 17.2832H98.8105C99.581 17.2832 100.207 17.1852 100.689 16.9893C101.17 16.7933 101.523 16.4586 101.748 15.9851C101.973 15.5115 102.085 14.8502 102.085 14.0012C102.085 12.8419 101.877 12.0091 101.459 11.5029C101.042 10.9804 100.215 10.7192 98.979 10.7192H97.775V17.2832Z" fill="white"/>
<path d="M107.541 28.5742V8.73528H110.262V18.0914L114.741 8.73528H117.269L113.416 17.4791L117.895 28.5742H115.246L111.514 19.2671L110.262 21.5694V28.5742H107.541Z" fill="white"/>
<path d="M119.463 28.5742V8.73528H127.024V10.7926H122.184V17.3566H126.109V19.316H122.184V26.5903H127.072V28.5742H119.463Z" fill="white"/>
<path d="M131.412 28.5742V10.7926H128.113V8.73528H137.336V10.7926H134.133V28.5742H131.412Z" fill="white"/>
<path d="M139.36 28.5742V8.73528H142.033V28.5742H139.36Z" fill="white"/>
<path d="M145.189 28.5742V8.73528H147.043L152.581 21.9123V8.73528H154.845V28.5742H153.111L147.5 15.0299V28.5742H145.189Z" fill="white"/>
<path d="M162.558 28.8191C161.338 28.8191 160.359 28.5579 159.62 28.0354C158.898 27.4966 158.368 26.721 158.031 25.7086C157.71 24.6962 157.549 23.4798 157.549 22.0592V15.4217C157.549 13.9685 157.694 12.7357 157.983 11.7234C158.288 10.6947 158.818 9.91092 159.572 9.37208C160.343 8.83325 161.41 8.56383 162.775 8.56383C163.995 8.56383 164.974 8.7761 165.712 9.20064C166.467 9.60884 167.013 10.2456 167.35 11.1111C167.687 11.9601 167.855 13.0378 167.855 14.3441V15.0788H165.303V14.4665C165.303 13.6011 165.247 12.899 165.134 12.3602C165.022 11.805 164.789 11.3968 164.436 11.1355C164.099 10.858 163.561 10.7192 162.823 10.7192C162.02 10.7192 161.434 10.9069 161.065 11.2825C160.712 11.6581 160.487 12.1724 160.391 12.8255C160.31 13.4623 160.27 14.1889 160.27 15.0054V22.3531C160.27 23.3002 160.335 24.0921 160.463 24.7289C160.607 25.3657 160.872 25.8392 161.258 26.1495C161.643 26.4597 162.189 26.6148 162.895 26.6148C163.601 26.6148 164.147 26.4434 164.532 26.1005C164.918 25.7576 165.183 25.2514 165.327 24.5819C165.472 23.9125 165.544 23.0797 165.544 22.0837V20.7121H163.064V18.7527H168V28.5742H166.29L166.025 26.2964C165.769 27.0312 165.367 27.6353 164.821 28.1089C164.276 28.5824 163.521 28.8191 162.558 28.8191Z" fill="white"/>
<path d="M18.7726 11.0662C15.2189 11.0662 11.6652 11.0556 8.11157 11.0711C6.08197 11.0802 4.61817 12.6063 4.59557 14.6897C4.58872 15.2618 4.58392 15.8339 4.59557 16.4053C4.59968 16.6067 4.53529 16.6573 4.34555 16.6566C2.97902 16.6488 1.6118 16.6523 0.245267 16.6523C0.121971 16.6523 -0.00269556 16.6818 4.43536e-05 16.4719C0.0185388 15.0526 -0.0684536 13.6297 0.334314 12.2349C1.30835 8.86973 4.43049 6.39462 7.85402 6.36724C11.4193 6.33846 14.984 6.35742 18.5493 6.35531H18.6863C18.7322 6.22615 18.6178 6.19035 18.565 6.13349C17.7718 5.3122 16.9793 4.49021 16.1745 3.68155C16.0087 3.51519 15.9895 3.42744 16.1669 3.25055C16.9266 2.49454 17.6677 1.71817 18.4205 0.955142C18.626 0.744554 18.7972 0.502379 19.0288 0.307936C19.2206 0.146485 19.2952 0.204046 19.4322 0.34514C20.5236 1.47155 21.6182 2.59468 22.716 3.71454C23.2544 4.26769 23.7912 4.8227 24.3264 5.37959C24.251 5.46593 24.1798 5.55718 24.0997 5.63931C22.8859 6.88693 21.6707 8.13291 20.4542 9.37724C19.8973 9.94373 19.3699 10.5411 18.7726 11.0662Z" fill="#276FFF"/>
<path d="M8.83563 23.9211C12.3763 23.9211 15.9176 23.9275 19.459 23.9162C21.2125 23.9106 22.588 22.7931 22.9339 21.1084C23.0921 20.3362 23.0222 19.5493 23.012 18.7695C23.0079 18.4353 23.0647 18.3181 23.4278 18.3258C24.7135 18.3539 26.0005 18.3427 27.2876 18.3314C27.5246 18.3314 27.6226 18.363 27.6164 18.6459C27.5876 19.9263 27.6712 21.2095 27.3493 22.4716C26.4437 26.0235 23.2819 28.5969 19.7035 28.6236C16.219 28.6495 12.7352 28.6327 9.25073 28.6341C9.11285 28.6247 8.97487 28.6507 8.84933 28.7099C9.66582 29.5331 10.4823 30.3567 11.2988 31.1808C11.6358 31.5219 11.6338 31.5241 11.2933 31.8722C10.3855 32.8058 9.47631 33.7383 8.56575 34.6695C8.44588 34.7931 8.3719 34.852 8.21915 34.6941C6.57794 32.9949 4.93193 31.2999 3.28113 29.6091C3.35579 29.5221 3.42703 29.4308 3.50649 29.3487C4.72027 28.1011 5.93565 26.8549 7.15263 25.6101C7.70952 25.0436 8.23696 24.4462 8.83563 23.9211Z" fill="#276FFF"/>
<path d="M18.7725 11.0662C19.3698 10.5411 19.8973 9.94304 20.4542 9.37726C21.6743 8.1362 22.8895 6.89022 24.0996 5.63933C24.1798 5.5572 24.251 5.46595 24.3264 5.37961C25.3767 6.44705 26.4254 7.5138 27.4725 8.57984C27.5855 8.69426 27.5622 8.77288 27.4595 8.86483C27.4081 8.91046 27.3622 8.96311 27.3142 9.01224C24.7068 11.6848 22.1009 14.3591 19.4966 17.0349C19.2678 17.2715 19.1596 17.2371 18.9554 17.023C18.0325 16.0552 17.0991 15.0982 16.1552 14.152C16.0066 14.0018 16.0039 13.926 16.1552 13.7736C16.9526 12.9741 17.7369 12.1591 18.5246 11.3526C18.6123 11.262 18.6903 11.1609 18.7725 11.0662Z" fill="#368DFF"/>
<path d="M8.83566 23.9211C8.23835 24.4462 7.71092 25.0443 7.15403 25.61C5.93249 26.8511 4.71665 28.0973 3.50652 29.3487C3.42706 29.4308 3.35582 29.522 3.28116 29.6091C2.23269 28.5416 1.18444 27.4744 0.136424 26.4075C0.0254574 26.2951 0.037102 26.2186 0.143959 26.1267C0.187112 26.0895 0.224786 26.0445 0.2652 26.0038C2.88821 23.3153 5.51031 20.6233 8.1315 17.9278C8.33699 17.7172 8.43152 17.7327 8.62468 17.9348C9.55557 18.9112 10.5002 19.8736 11.4488 20.8325C11.5961 20.9806 11.603 21.0578 11.4488 21.2109C10.6591 22.002 9.88162 22.8064 9.10211 23.608C9.00827 23.707 8.92402 23.8165 8.83566 23.9211Z" fill="#368DFF"/>
</svg>
