<svg width="73" height="80" viewBox="0 0 73 80" fill="none" xmlns="http://www.w3.org/2000/svg">
<path d="M72.003 49.0588C64.302 31.6124 65.6403 34.6442 65.3784 34.0511C70.1082 31.9634 72.2575 26.4169 70.1699 21.6872C68.0822 16.9572 62.5355 14.8079 57.8058 16.8956C53.0562 6.19738 55.7195 12.0352 50.8763 1.39473C50.3519 0.211138 48.9674 -0.322837 47.7835 0.201606C46.5999 0.726204 46.0657 2.11091 46.5903 3.2945L48.2455 7.02889C45.6022 11.2469 34.8112 27.0458 17.0615 34.8806L4.19518 40.5598C0.639724 42.129 -0.968139 46.2768 0.601594 49.8327L4.38786 58.4105C5.1464 60.129 6.52861 61.449 8.28008 62.1279C9.97405 62.7842 11.887 62.7872 13.6608 62.0041L15.8468 61.0391C19.0324 67.602 23.368 73.7328 28.763 79.2888C29.4472 79.9934 30.4962 80.1955 31.3912 79.8003L40.6355 75.7198C42.1776 75.0392 42.5186 72.9957 41.2776 71.8518C37.5278 68.3954 32.4588 62.8351 28.7374 55.3861C45.4752 48.5503 61.6234 48.0267 66.4221 48.0371L67.7169 50.9585C68.1047 51.8333 68.9623 52.3533 69.8613 52.3533C70.1785 52.3533 70.5011 52.2885 70.8099 52.1516C71.9934 51.6271 72.5276 50.2424 72.003 49.0588ZM11.7676 57.7153C10.5827 58.2385 9.19989 57.7029 8.6767 56.5175L4.89043 47.9396C4.36724 46.7546 4.90293 45.3718 6.08824 44.8488L16.8104 40.116L22.4897 52.9825L11.7676 57.7153ZM35.5664 72.8328L31.0079 74.845C26.5195 70.0101 22.8727 64.7437 20.136 59.1459L24.4292 57.2508C27.6877 63.849 31.9119 69.0795 35.5664 72.8328ZM54.5414 44.0724C47.6276 44.8863 37.3823 46.7685 26.7911 51.1175L21.0808 38.181C31.4914 33.0971 39.3771 25.6196 44.2682 20.0732C46.9732 17.0058 49.0549 14.2195 50.504 12.1239L64.3511 43.3648C61.9903 43.4186 58.6173 43.5925 54.5414 44.0724ZM63.4853 29.7623L59.699 21.1845C62.0639 20.1406 64.8372 21.2154 65.8811 23.5802C66.925 25.9451 65.8502 28.7184 63.4853 29.7623Z" fill="url(#paint0_linear)"/>
<defs>
<linearGradient id="paint0_linear" x1="72.2045" y1="87.9999" x2="-8.61074" y2="3.20585" gradientUnits="userSpaceOnUse">
<stop stop-color="#276FFF"/>
<stop offset="1" stop-color="#99C5FF"/>
</linearGradient>
</defs>
</svg>
