<svg width="81" height="82" viewBox="0 0 81 82" fill="none" xmlns="http://www.w3.org/2000/svg">
<path d="M40.1804 57.4062H30.811C29.5174 57.4062 28.4687 58.4556 28.4687 59.75V78.6562C28.4687 79.9506 29.5174 81 30.811 81H40.1804C41.474 81 42.5227 79.9506 42.5227 78.6562V59.75C42.5227 58.4556 41.474 57.4062 40.1804 57.4062ZM37.838 76.3125H33.1534V62.0938H37.838V76.3125ZM21.4417 66.9375H12.0724C10.7788 66.9375 9.73005 67.9869 9.73005 69.2812V78.6562C9.73005 79.9506 10.7788 81 12.0724 81H21.4417C22.7353 81 23.784 79.9506 23.784 78.6562V69.2812C23.784 67.9869 22.7353 66.9375 21.4417 66.9375ZM19.0994 76.3125H14.4147V71.625H19.0994V76.3125ZM58.919 43.3438H49.5497C48.2561 43.3438 47.2074 44.3931 47.2074 45.6875V78.6562C47.2074 79.9506 48.2561 81 49.5497 81H58.919C60.2126 81 61.2613 79.9506 61.2613 78.6562V45.6875C61.2613 44.3931 60.2126 43.3438 58.919 43.3438ZM56.5767 76.3125H51.892V48.0312H56.5767V76.3125ZM77.6577 29.2812H68.2883C66.9948 29.2812 65.946 30.3306 65.946 31.625V78.6562C65.946 79.9506 66.9948 81 68.2883 81H77.6577C78.9513 81 80 79.9506 80 78.6562V31.625C80 30.3306 78.9513 29.2812 77.6577 29.2812ZM75.3153 76.3125H70.6307V33.9688H75.3153V76.3125ZM49.7689 32.567L46.6443 30.7619C46.92 29.4145 47.051 28.17 47.051 26.9375C47.051 25.705 46.9199 24.4605 46.6443 23.1131L49.7689 21.308C50.8886 20.6612 51.273 19.2272 50.6262 18.1064L45.9416 9.98734C45.2946 8.86609 43.8622 8.48234 42.7419 9.12953L39.6521 10.9145C37.7095 9.26578 35.4529 7.97781 32.9972 7.11578V3.34375C32.9972 2.04937 31.9485 1 30.6549 1H21.2856C19.992 1 18.9432 2.04937 18.9432 3.34375V7.11578C16.4874 7.97781 14.2309 9.26578 12.2883 10.9145L9.19835 9.12953C8.07777 8.48203 6.64536 8.86625 5.99872 9.98734L1.31406 18.1064C0.667574 19.2267 1.05109 20.6609 2.17135 21.308L5.29602 23.1131C5.02025 24.4605 4.88924 25.705 4.88924 26.9375C4.88924 28.17 5.02041 29.4145 5.29602 30.7619L2.17135 32.567C1.6334 32.8778 1.24082 33.3897 1.07998 33.9902C0.919297 34.5906 1.00346 35.2303 1.31406 35.7686L5.99872 43.8876C6.64567 45.0087 8.07793 45.3927 9.19835 44.7455L12.2882 42.9605C14.2309 44.6094 16.4871 45.8972 18.9431 46.7592V50.375C18.9431 51.6694 19.9918 52.7188 21.2854 52.7188H30.6547C31.9483 52.7188 32.9971 51.6694 32.9971 50.375V46.7592C35.4532 45.8972 37.7092 44.6094 39.6519 42.9605L42.7418 44.7455C43.8619 45.3928 45.2946 45.0086 45.9414 43.8876L50.6261 35.7686C51.2727 34.6483 50.8892 33.2141 49.7689 32.567ZM41.6987 22.5844C42.1542 24.2327 42.3664 25.6159 42.3664 26.9375C42.3664 28.2591 42.1542 29.6423 41.6987 31.2906C41.4141 32.3198 41.8609 33.4112 42.785 33.9452L45.398 35.4547L43.0557 39.5142L40.4981 38.0367C39.5732 37.5025 38.4043 37.6617 37.656 38.4241C35.6189 40.4991 32.9949 41.997 30.0674 42.7556C29.034 43.0234 28.3124 43.9564 28.3124 45.0245V48.0312H23.6277V45.0245C23.6277 43.9564 22.9061 43.0234 21.8727 42.7556C18.9453 41.997 16.3212 40.4991 14.2842 38.4241C13.5359 37.6617 12.3667 37.5025 11.442 38.0367L8.88447 39.5142L6.54214 35.4547L9.15509 33.9452C10.0792 33.4112 10.526 32.3198 10.2415 31.2906C9.78596 29.6423 9.57374 28.2591 9.57374 26.9375C9.57374 25.6159 9.78596 24.2327 10.2415 22.5844C10.526 21.5552 10.0792 20.4638 9.15509 19.9298L6.54214 18.4203L8.88447 14.3608L11.442 15.8383C12.3667 16.3725 13.5359 16.2134 14.2842 15.4509C16.3212 13.3759 18.9454 11.878 21.8727 11.1194C22.9061 10.8516 23.6277 9.91859 23.6277 8.85047V5.6875H28.3124V8.85047C28.3124 9.91859 29.034 10.8516 30.0674 11.1194C32.9947 11.878 35.6189 13.3759 37.656 15.4509C38.4044 16.2134 39.5732 16.3725 40.4981 15.8383L43.0557 14.3608L45.398 18.4203L42.785 19.9298C41.8609 20.4638 41.4141 21.5552 41.6987 22.5844ZM25.9702 15.2188C19.5124 15.2188 14.2586 20.4758 14.2586 26.9375C14.2586 33.3992 19.5124 38.6562 25.9702 38.6562C32.428 38.6562 37.6819 33.3992 37.6819 26.9375C37.6819 20.4758 32.428 15.2188 25.9702 15.2188ZM25.9702 33.9688C22.0955 33.9688 18.9432 30.8145 18.9432 26.9375C18.9432 23.0605 22.0955 19.9062 25.9702 19.9062C29.8449 19.9062 32.9972 23.0605 32.9972 26.9375C32.9972 30.8145 29.8449 33.9688 25.9702 33.9688Z" fill="url(#paint0_linear)" stroke="white"/>
<defs>
<linearGradient id="paint0_linear" x1="79.9998" y1="88.9999" x2="-0.144357" y2="-3.00399" gradientUnits="userSpaceOnUse">
<stop stop-color="#276FFF"/>
<stop offset="1" stop-color="#99C5FF"/>
</linearGradient>
</defs>
</svg>
