<svg width="86" height="61" viewBox="0 0 86 61" fill="none" xmlns="http://www.w3.org/2000/svg">
<path d="M13.3772 46.875H20.8065V49.2188C20.8065 50.5142 21.9141 51.5625 23.2829 51.5625C24.6517 51.5625 25.7593 50.5142 25.7593 49.2188V46.875H72.8112C74.18 46.875 75.2876 45.8267 75.2876 44.5312C75.2876 43.2358 74.18 42.1875 72.8112 42.1875H25.7593V39.8438C25.7593 38.5483 24.6517 37.5 23.2829 37.5C21.9141 37.5 20.8065 38.5483 20.8065 39.8438V42.1875H13.3772C12.0085 42.1875 10.9008 43.2358 10.9008 44.5312C10.9008 45.8267 12.0085 46.875 13.3772 46.875ZM34.4654 37.207C35.2394 37.6113 36.2007 37.6039 36.9781 37.143L56.7895 25.4242C57.5126 24.9963 57.9527 24.2455 57.9527 23.4375C57.9527 22.6295 57.5126 21.8787 56.7895 21.4508L36.9781 9.73203C36.2139 9.27656 35.2442 9.25594 34.4654 9.66797C33.6771 10.0822 33.1886 10.8673 33.1886 11.7188V35.1562C33.1886 36.0077 33.6771 36.7928 34.4654 37.207ZM38.1414 15.9484L50.804 23.4375L38.1414 30.9266V15.9484ZM82.882 0H3.30649C1.9377 0 0.830078 1.04828 0.830078 2.34375V58.5938C0.830078 59.8892 1.9377 60.9375 3.30649 60.9375H82.882C84.2508 60.9375 85.3584 59.8892 85.3584 58.5938V2.34375C85.3584 1.04828 84.2508 0 82.882 0ZM80.4055 56.25H5.78291V4.6875H80.4055V56.25Z" fill="url(#paint0_linear)"/>
<defs>
<linearGradient id="paint0_linear" x1="85.3582" y1="67.0312" x2="30.1516" y2="-21.9925" gradientUnits="userSpaceOnUse">
<stop stop-color="#276FFF"/>
<stop offset="1" stop-color="#99C5FF"/>
</linearGradient>
</defs>
</svg>
