<svg width="80" height="80" viewBox="0 0 80 80" fill="none" xmlns="http://www.w3.org/2000/svg">
<path d="M80 38.3877C79.7634 28.0036 75.4227 18.1357 67.9275 10.943C60.4324 3.75028 50.393 -0.181835 40.0055 0.00685871C29.6004 -0.187469 19.5434 3.7544 12.0427 10.967C4.54205 18.1795 0.210809 28.0732 0 38.4757C0.0337339 43.7225 1.15845 48.905 3.30273 53.694C5.44701 58.483 8.56398 62.7739 12.4557 66.2941V75.7465C12.4509 76.7119 12.7749 77.6503 13.3742 78.4073C13.9736 79.1644 14.8127 79.695 15.7537 79.9121C16.036 79.9694 16.3232 79.9988 16.6112 80C17.389 79.9952 18.1502 79.7745 18.8099 79.3625L26.3955 74.6254C30.7592 76.1537 35.3488 76.9377 39.9725 76.9445C50.3814 77.1447 60.4441 73.2055 67.9495 65.9923C75.4549 58.7791 79.7892 48.882 80 38.4757V38.3877ZM64.2572 62.1615C61.0446 65.2482 57.255 67.6717 53.1051 69.2936C48.9552 70.9155 44.5263 71.7039 40.0715 71.6138H39.9395C35.7235 71.6116 31.5408 70.8675 27.5828 69.4156C27.0459 69.2073 26.4674 69.1286 25.8943 69.1859C25.3212 69.2432 24.7698 69.4349 24.2847 69.7453L17.6886 73.845V65.5907C17.7013 65.065 17.6009 64.5427 17.3942 64.0591C17.1874 63.5756 16.8792 63.1421 16.4903 62.788C13.0025 59.7632 10.1987 56.0308 8.26528 51.8389C6.33187 47.647 5.31317 43.0916 5.2769 38.4757C5.4865 29.5993 9.16127 21.1572 15.5155 14.9543C21.8697 8.75141 30.3991 5.28011 39.2799 5.28258H40.0495C49.0514 5.09385 57.7607 8.48243 64.2671 14.705C70.7734 20.9276 74.5456 29.4762 74.7561 38.4757C74.6508 42.9201 73.6693 47.3001 71.8677 51.3646C70.0661 55.4291 67.4798 59.0981 64.2572 62.1615ZM47.9428 22.3627C45.5513 22.361 43.2284 23.1622 41.3467 24.6379C40.8872 25.0069 40.4503 25.4033 40.0385 25.8249C39.6229 25.4032 39.1824 25.0068 38.7193 24.6379C36.8375 23.1622 34.5147 22.361 32.1231 22.3627C30.5516 22.3498 28.9949 22.6669 27.5537 23.2936C26.1125 23.9203 24.8191 24.8426 23.757 26.0008C21.5883 28.4113 20.4103 31.5518 20.459 34.7937C20.459 42.0258 25.9557 46.697 33.5193 53.1598C34.7616 54.2589 36.1578 55.358 37.6089 56.6769C38.2837 57.2652 39.1487 57.5894 40.044 57.5894C40.9393 57.5894 41.8043 57.2652 42.479 56.6769C43.9302 55.4129 45.3044 54.2369 46.5686 53.1598C54.1102 46.664 59.585 41.9928 59.585 34.7607C59.6391 31.5179 58.4604 28.3754 56.2869 25.9678C55.2245 24.8184 53.9332 23.9039 52.4962 23.283C51.0592 22.6622 49.5082 22.3487 47.9428 22.3627ZM43.1057 49.104L42.9298 49.2579C42.0283 50.0273 41.0389 50.8626 40.0055 51.7639L36.9053 49.115C29.9134 43.1579 25.6919 39.5638 25.6919 34.7607C25.6919 30.639 28.3633 27.6385 32.0572 27.6385C33.2905 27.6318 34.4891 28.0467 35.4542 28.8145C36.2706 29.479 36.9629 30.2827 37.499 31.1886C37.7553 31.6239 38.1209 31.9848 38.5596 32.2355C38.9982 32.4862 39.4947 32.6181 40 32.6181C40.5053 32.6181 41.0018 32.4862 41.4404 32.2355C41.8791 31.9848 42.2447 31.6239 42.501 31.1886C43.0371 30.2827 43.7294 29.479 44.5458 28.8145C45.5109 28.0467 46.7095 27.6318 47.9428 27.6385C51.6367 27.6385 54.3081 30.639 54.3081 34.7607C54.3081 39.5748 50.0866 43.1469 43.1057 49.104Z" fill="url(#paint0_linear)"/>
<defs>
<linearGradient id="paint0_linear" x1="79.9998" y1="87.9999" x2="-2.82047e-05" y2="-5.00081" gradientUnits="userSpaceOnUse">
<stop stop-color="#276FFF"/>
<stop offset="1" stop-color="#99C5FF"/>
</linearGradient>
</defs>
</svg>
