<svg width="79" height="78" viewBox="0 0 79 78" fill="none" xmlns="http://www.w3.org/2000/svg">
<g clip-path="url(#clip0)">
<path d="M27.2342 33.0829C26.3351 32.2067 24.8771 32.2067 23.9778 33.0829C23.0786 33.9591 23.0786 35.3796 23.9778 36.2559L26.9548 39.1568L23.9778 42.0575C23.0786 42.9338 23.0786 44.3543 23.9778 45.2305C24.8769 46.1066 26.3349 46.1067 27.2342 45.2305L30.2113 42.3296L33.1885 45.2305C34.0876 46.1066 35.5456 46.1067 36.4448 45.2305C37.3441 44.3543 37.3441 42.9338 36.4448 42.0575L33.4677 39.1568L36.4447 36.256C37.3439 35.3798 37.3439 33.9593 36.4447 33.083C35.5456 32.2068 34.0876 32.2068 33.1883 33.083L30.2112 35.9839L27.2342 33.0829ZM25.6061 23.4512C29.4151 23.4512 32.5139 20.4316 32.5139 16.7202C32.5139 13.0087 29.4151 9.9892 25.6061 9.9892C21.7971 9.9892 18.6982 13.0087 18.6982 16.7202C18.6982 20.4316 21.7971 23.4512 25.6061 23.4512ZM25.6061 14.4765C26.8757 14.4765 27.9087 15.483 27.9087 16.7202C27.9087 17.9573 26.8757 18.9638 25.6061 18.9638C24.3364 18.9638 23.3035 17.9573 23.3035 16.7202C23.3035 15.483 24.3364 14.4765 25.6061 14.4765ZM53.2375 36.9131C49.4285 36.9131 46.3296 39.9326 46.3296 43.6441C46.3296 47.3556 49.4285 50.3751 53.2375 50.3751C57.0465 50.3751 60.1454 47.3556 60.1454 43.6441C60.1454 39.9326 57.0465 36.9131 53.2375 36.9131ZM53.2375 45.8878C51.9678 45.8878 50.9349 44.8812 50.9349 43.6441C50.9349 42.4069 51.9678 41.4004 53.2375 41.4004C54.5072 41.4004 55.5401 42.4069 55.5401 43.6441C55.5401 44.8812 54.5072 45.8878 53.2375 45.8878ZM39.4218 14.4765C48.3094 14.4765 55.5401 21.5221 55.5401 30.1821C55.5401 31.4212 56.5711 32.4258 57.8427 32.4258C59.1144 32.4258 60.1454 31.4212 60.1454 30.1821C60.1454 19.0478 50.8488 9.9892 39.4218 9.9892C38.1501 9.9892 37.1192 10.9938 37.1192 12.2329C37.1192 13.472 38.15 14.4765 39.4218 14.4765ZM76.4172 0.86499H2.4264C1.15474 0.86499 0.123779 1.86955 0.123779 3.10865C0.123779 4.34775 1.15474 5.35231 2.4264 5.35231H4.72902V57.106C4.72902 58.3451 5.75997 59.3497 7.03163 59.3497H26.4993C26.4439 59.4567 18.9924 74.1012 18.9379 74.2081C18.3729 75.3183 18.8385 76.6645 19.9779 77.2149C21.1157 77.7648 22.498 77.3132 23.0637 76.2015L27.0724 68.3243H37.119V75.2049C37.119 76.444 38.15 77.4486 39.4216 77.4486C40.6933 77.4486 41.7243 76.444 41.7243 75.2049V68.3243H51.7709L55.7796 76.2017C56.3456 77.3138 57.7279 77.7646 58.8654 77.2151C60.0047 76.6646 60.4703 75.3184 59.9054 74.2083C58.1252 70.7103 53.7894 62.19 52.3439 59.3499H71.8116C73.0833 59.3499 74.1143 58.3453 74.1143 57.1062V5.35231H76.4169C77.6885 5.35231 78.7195 4.34775 78.7195 3.10865C78.7195 1.86955 77.6889 0.86499 76.4172 0.86499ZM37.1192 63.837H29.356L31.6396 59.3497H37.119V63.837H37.1192ZM41.7244 63.837V59.3497H47.2039L49.4875 63.837H41.7244ZM69.5093 54.8624H9.33425V5.35231H69.5093V54.8624Z" fill="url(#paint0_linear)"/>
</g>
<defs>
<linearGradient id="paint0_linear" x1="78.7193" y1="85.1074" x2="2.4566" y2="-5.87766" gradientUnits="userSpaceOnUse">
<stop stop-color="#276FFF"/>
<stop offset="1" stop-color="#99C5FF"/>
</linearGradient>
<clipPath id="clip0">
<rect width="78.5965" height="76.584" fill="white" transform="translate(0.122803 0.86499)"/>
</clipPath>
</defs>
</svg>
