<svg width="1119" height="249" viewBox="0 0 1119 249" fill="none" xmlns="http://www.w3.org/2000/svg">
<g opacity="0.9">
<path d="M796.566 210.198H694.808V219.449H796.566V210.198Z" fill="white"/>
<path d="M548.851 205.83L487.179 162.66V188.613H315.526V225.616H487.179V249L548.851 205.83Z" fill="#F8F8F8"/>
<path d="M836.653 57.8175L774.981 14.6472V40.6008H604.356V77.6038H774.981V100.988L836.653 57.8175Z" fill="#F8F8F8"/>
<path d="M836.653 196.579L898.325 239.749V214.31H1069.98V177.307H898.325V153.409L836.653 196.579Z" fill="#F8F8F8"/>
<path d="M98.647 57.8175L160.319 100.988V75.5481H330.944V38.545H160.319V14.6472L98.647 57.8175Z" fill="#F8F8F8"/>
<path d="M625.427 67.5204C625.427 80.5697 621.557 93.326 614.307 104.176C607.058 115.026 596.753 123.483 584.697 128.477C572.641 133.47 559.375 134.777 546.577 132.231C533.778 129.685 522.022 123.402 512.794 114.174C503.567 104.947 497.283 93.1908 494.738 80.3922C492.192 67.5936 493.498 54.3275 498.492 42.2715C503.486 30.2155 511.942 19.9111 522.793 12.6613C533.643 5.41144 546.399 1.54187 559.448 1.54187C568.113 1.54187 576.692 3.24846 584.697 6.56419C592.702 9.87992 599.975 14.7399 606.102 20.8665C612.229 26.9932 617.089 34.2666 620.405 42.2715C623.72 50.2764 625.427 58.856 625.427 67.5204Z" fill="url(#paint0_linear)"/>
<path d="M597.675 68.2913C597.675 76.0042 595.388 83.5439 591.103 89.957C586.817 96.37 580.727 101.368 573.601 104.32C566.475 107.272 558.634 108.044 551.07 106.539C543.505 105.034 536.556 101.32 531.102 95.8665C525.649 90.4126 521.934 83.464 520.43 75.8993C518.925 68.3346 519.697 60.4936 522.649 53.3678C525.601 46.242 530.599 40.1515 537.012 35.8664C543.425 31.5813 550.965 29.2942 558.678 29.2942C569.02 29.2942 578.939 33.4028 586.253 40.7162C593.566 48.0296 597.675 57.9486 597.675 68.2913Z" fill="url(#paint1_linear)"/>
<path d="M749.572 72.5467C749.572 77.7469 748.03 82.8303 745.141 87.1541C742.252 91.4779 738.146 94.8479 733.341 96.838C728.537 98.828 723.25 99.3487 718.15 98.3342C713.05 97.3197 708.365 94.8155 704.688 91.1384C701.011 87.4613 698.507 82.7764 697.492 77.6761C696.478 72.5758 696.998 67.2892 698.988 62.4849C700.978 57.6805 704.348 53.5741 708.672 50.685C712.996 47.796 718.079 46.2539 723.28 46.2539C730.253 46.2539 736.941 49.024 741.871 53.9549C746.802 58.8857 749.572 65.5734 749.572 72.5467Z" fill="url(#paint2_linear)"/>
<path d="M738.513 72.855C738.513 75.9288 737.601 78.9335 735.893 81.4893C734.186 84.045 731.758 86.037 728.919 87.2133C726.079 88.3896 722.954 88.6974 719.939 88.0977C716.925 87.498 714.155 86.0179 711.982 83.8444C709.808 81.6709 708.328 78.9017 707.729 75.887C707.129 72.8723 707.437 69.7474 708.613 66.9076C709.789 64.0678 711.781 61.6406 714.337 59.9329C716.893 58.2252 719.897 57.3137 722.971 57.3137C727.093 57.3137 731.046 58.9511 733.961 61.8657C736.875 64.7802 738.513 68.7332 738.513 72.855Z" fill="url(#paint3_linear)"/>
<path d="M1054.33 15.2433C1054.33 18.2603 1053.44 21.2095 1051.76 23.7173C1050.08 26.2251 1047.7 28.1788 1044.91 29.331C1042.12 30.4832 1039.06 30.7821 1036.1 30.1898C1033.14 29.5974 1030.42 28.1405 1028.29 26.0036C1026.16 23.8666 1024.72 21.1457 1024.13 18.1855C1023.55 15.2252 1023.86 12.1587 1025.02 9.37428C1026.18 6.58985 1028.15 4.21276 1030.66 2.54401C1033.17 0.87526 1036.13 -0.0100853 1039.14 8.66764e-05C1043.18 0.013687 1047.04 1.62567 1049.89 4.48285C1052.73 7.34003 1054.33 11.2094 1054.33 15.2433Z" fill="white"/>
<path d="M1047.92 15.418C1047.92 17.1989 1047.39 18.9397 1046.4 20.4204C1045.41 21.9011 1044.01 23.0552 1042.36 23.7367C1040.72 24.4182 1038.91 24.5965 1037.16 24.2491C1035.41 23.9017 1033.81 23.0441 1032.55 21.7849C1031.29 20.5256 1030.43 18.9213 1030.08 17.1746C1029.74 15.428 1029.92 13.6176 1030.6 11.9723C1031.28 10.327 1032.43 8.92078 1033.91 7.9314C1035.39 6.94202 1037.13 6.41394 1038.92 6.41394C1041.3 6.41394 1043.59 7.36258 1045.28 9.05118C1046.97 10.7398 1047.92 13.03 1047.92 15.418Z" fill="url(#paint4_linear)"/>
<path d="M354.873 77.1721C354.873 82.3724 353.331 87.4558 350.442 91.7796C347.553 96.1034 343.446 99.4734 338.642 101.463C333.838 103.454 328.551 103.974 323.451 102.96C318.35 101.945 313.665 99.441 309.988 95.7639C306.311 92.0868 303.807 87.4019 302.793 82.3016C301.778 77.2013 302.299 71.9147 304.289 67.1103C306.279 62.306 309.649 58.1996 313.973 55.3105C318.296 52.4214 323.38 50.8794 328.58 50.8794C335.553 50.8794 342.241 53.6495 347.172 58.5804C352.103 63.5112 354.873 70.1989 354.873 77.1721Z" fill="url(#paint5_linear)"/>
<path d="M343.813 77.4805C343.813 80.5543 342.902 83.559 341.194 86.1148C339.486 88.6705 337.059 90.6625 334.219 91.8388C331.379 93.0151 328.255 93.3228 325.24 92.7232C322.225 92.1235 319.456 90.6434 317.282 88.4699C315.109 86.2964 313.629 83.5272 313.029 80.5125C312.429 77.4977 312.737 74.3729 313.913 71.5331C315.09 68.6933 317.082 66.2661 319.637 64.5584C322.193 62.8507 325.198 61.9392 328.272 61.9392C332.394 61.9392 336.347 63.5766 339.261 66.4912C342.176 69.4057 343.813 73.3587 343.813 77.4805Z" fill="url(#paint6_linear)"/>
<path d="M866.749 178.931C866.749 184.131 865.207 189.214 862.318 193.538C859.429 197.862 855.322 201.232 850.518 203.222C845.713 205.212 840.427 205.733 835.327 204.718C830.226 203.704 825.541 201.199 821.864 197.522C818.187 193.845 815.683 189.16 814.669 184.06C813.654 178.96 814.175 173.673 816.165 168.869C818.155 164.064 821.525 159.958 825.849 157.069C830.172 154.18 835.256 152.638 840.456 152.638C843.909 152.638 847.328 153.318 850.518 154.639C853.708 155.961 856.606 157.897 859.048 160.339C861.489 162.78 863.426 165.679 864.747 168.869C866.069 172.059 866.749 175.478 866.749 178.931Z" fill="url(#paint7_linear)"/>
<path d="M855.689 179.239C855.689 182.313 854.778 185.317 853.07 187.873C851.362 190.429 848.935 192.421 846.095 193.597C843.255 194.774 840.13 195.081 837.116 194.482C834.101 193.882 831.332 192.402 829.158 190.228C826.985 188.055 825.505 185.286 824.905 182.271C824.305 179.256 824.613 176.131 825.789 173.292C826.966 170.452 828.958 168.025 831.513 166.317C834.069 164.609 837.074 163.698 840.148 163.698C844.27 163.698 848.222 165.335 851.137 168.25C854.052 171.164 855.689 175.117 855.689 179.239Z" fill="url(#paint8_linear)"/>
<path d="M464.34 183.556C464.34 188.756 462.798 193.84 459.909 198.163C457.02 202.487 452.914 205.857 448.109 207.847C443.305 209.837 438.018 210.358 432.918 209.343C427.818 208.329 423.133 205.825 419.456 202.148C415.779 198.471 413.274 193.786 412.26 188.685C411.245 183.585 411.766 178.298 413.756 173.494C415.746 168.69 419.116 164.583 423.44 161.694C427.764 158.805 432.847 157.263 438.048 157.263C445.021 157.263 451.708 160.033 456.639 164.964C461.57 169.895 464.34 176.583 464.34 183.556Z" fill="url(#paint9_linear)"/>
<path d="M453.26 183.864C453.26 186.938 452.348 189.943 450.641 192.499C448.933 195.054 446.506 197.046 443.666 198.223C440.826 199.399 437.701 199.707 434.687 199.107C431.672 198.507 428.903 197.027 426.729 194.854C424.556 192.68 423.076 189.911 422.476 186.896C421.876 183.882 422.184 180.757 423.36 177.917C424.537 175.077 426.528 172.65 429.084 170.942C431.64 169.235 434.645 168.323 437.719 168.323C441.84 168.323 445.793 169.961 448.708 172.875C451.622 175.79 453.26 179.743 453.26 183.864Z" fill="url(#paint10_linear)"/>
<path d="M620.802 68.0241C620.802 80.1649 617.202 92.0333 610.458 102.129C603.713 112.224 594.127 120.093 582.911 124.741C571.695 129.389 559.353 130.607 547.445 128.242C535.537 125.876 524.597 120.033 516.009 111.451C507.422 102.869 501.571 91.9333 499.198 80.0267C496.824 68.1201 498.034 55.777 502.675 44.558C507.315 33.3389 515.178 23.7476 525.269 16.9966C535.359 10.2455 547.225 6.63791 559.366 6.62977C567.432 6.62437 575.42 8.2084 582.873 11.2913C590.327 14.3743 597.1 18.8957 602.805 24.5972C608.51 30.2987 613.036 37.0686 616.124 44.52C619.212 51.9714 620.802 59.9582 620.802 68.0241V68.0241Z" stroke="#171B26" stroke-width="2" stroke-linejoin="round"/>
<path d="M497.458 67.3252H620.802" stroke="#171B26" stroke-width="2" stroke-linejoin="round"/>
<path d="M505.681 36.4893H613.607" stroke="#171B26" stroke-width="2" stroke-linejoin="round"/>
<path d="M505.681 99.189H613.607" stroke="#171B26" stroke-width="2" stroke-linejoin="round"/>
<path d="M559.13 6.68115V130.025" stroke="#171B26" stroke-width="2" stroke-linejoin="round"/>
<path d="M590.994 13.8763V121.802" stroke="#171B26" stroke-width="2" stroke-linejoin="round"/>
<path d="M528.294 13.8763V121.802" stroke="#171B26" stroke-width="2" stroke-linejoin="round"/>
<path d="M672.195 86.8545H716.393V100.011L748.144 77.7887L716.393 55.556V68.3529H632.108" stroke="#171B26" stroke-width="2" stroke-linejoin="round"/>
<path d="M488.207 166H445.037V152.689L413.286 174.922L445.037 197.144V184.502H528.294" stroke="#171B26" stroke-width="2" stroke-linejoin="round"/>
<path d="M487.179 110.495H419.34" stroke="#171B26" stroke-width="2" stroke-linejoin="round"/>
<path d="M613.606 154.693H694.808" stroke="#171B26" stroke-width="2" stroke-linejoin="round"/>
<path d="M688.846 148.177L695.784 155.115L688.98 161.909" stroke="#171B26" stroke-width="2" stroke-linejoin="round"/>
<path d="M425.96 117.197L419.022 110.259L425.826 103.465" stroke="#171B26" stroke-width="2" stroke-linejoin="round"/>
<path d="M539.6 184.502H565.297" stroke="#171B26" stroke-width="2" stroke-linejoin="round"/>
<path d="M255.663 107.741L243.802 141.331H266.189" stroke="#171B26" stroke-width="2" stroke-linejoin="round"/>
<path d="M839.737 19.0156V74.5202H879.823V95.5914L901.676 74.5202H919.91V19.0156H839.737Z" fill="url(#paint11_linear)"/>
<path d="M910.659 65.2695H903.464" stroke="#171B26" stroke-width="2" stroke-linejoin="round"/>
<path d="M898.325 65.2695H891.13" stroke="#171B26" stroke-width="2" stroke-linejoin="round"/>
<path d="M910.659 51.9073H848.987" stroke="#171B26" stroke-width="2" stroke-linejoin="round"/>
<path d="M910.659 39.5729H848.987" stroke="#171B26" stroke-width="2" stroke-linejoin="round"/>
<path d="M910.659 27.2385H870.572" stroke="#171B26" stroke-width="2" stroke-linejoin="round"/>
<path d="M334.028 235.895V180.39H293.941V158.805L273.117 180.39H253.854V235.895H334.028Z" fill="url(#paint12_linear)"/>
<path d="M263.105 188.613H271.328" stroke="#171B26" stroke-width="2" stroke-linejoin="round"/>
<path d="M275.439 188.613H283.662" stroke="#171B26" stroke-width="2" stroke-linejoin="round"/>
<path d="M263.105 203.003H324.777" stroke="#171B26" stroke-width="2" stroke-linejoin="round"/>
<path d="M263.105 215.337H324.777" stroke="#171B26" stroke-width="2" stroke-linejoin="round"/>
<path d="M263.105 227.672H303.192" stroke="#171B26" stroke-width="2" stroke-linejoin="round"/>
<path d="M831.514 183.474V186.67C831.514 190.216 834.33 193.752 837.876 193.752H845.215C848.761 193.752 850.015 190.216 850.015 186.67V184.83C850.015 181.284 848.761 178.334 845.215 178.334H837.876C837.04 178.343 836.211 178.184 835.436 177.869C834.662 177.553 833.958 177.087 833.366 176.496C832.774 175.906 832.305 175.204 831.987 174.431C831.669 173.657 831.508 172.829 831.514 171.992V170.163C831.506 169.332 831.667 168.508 831.986 167.741C832.305 166.974 832.776 166.279 833.37 165.698C833.964 165.117 834.67 164.662 835.444 164.361C836.218 164.06 837.046 163.918 837.876 163.944H845.215C848.761 163.944 850.015 166.617 850.015 170.163V173.195" stroke="#171B26" stroke-width="2" stroke-linejoin="round"/>
<path d="M868.753 178.262C868.753 183.827 867.103 189.266 864.011 193.893C860.919 198.52 856.525 202.126 851.384 204.255C846.243 206.384 840.586 206.94 835.128 205.854C829.671 204.767 824.658 202.087 820.724 198.152C816.79 194.216 814.111 189.202 813.027 183.744C811.943 178.287 812.501 172.63 814.632 167.489C816.763 162.349 820.371 157.956 824.998 154.866C829.626 151.776 835.066 150.128 840.631 150.13C844.325 150.13 847.982 150.858 851.395 152.271C854.808 153.685 857.908 155.758 860.52 158.37C863.131 160.983 865.203 164.084 866.615 167.497C868.028 170.91 868.754 174.568 868.753 178.262V178.262Z" stroke="#171B26" stroke-width="2" stroke-linejoin="round"/>
<path d="M840.764 164.972V157.777" stroke="#171B26" stroke-width="2" stroke-linejoin="round"/>
<path d="M840.764 200.947V194.78" stroke="#171B26" stroke-width="2" stroke-linejoin="round"/>
<path d="M857.21 178.334H861.322" stroke="#171B26" stroke-width="2" stroke-linejoin="round"/>
<path d="M820.207 178.334H824.318" stroke="#171B26" stroke-width="2" stroke-linejoin="round"/>
<path d="M319.638 81.7152V84.9119C319.638 88.458 322.454 91.9939 326 91.9939H333.339C336.885 91.9939 338.139 88.458 338.139 84.9119V83.072C338.139 79.5259 336.885 76.5759 333.339 76.5759H326C325.164 76.5841 324.335 76.4258 323.56 76.1103C322.786 75.7947 322.082 75.3282 321.49 74.738C320.898 74.1477 320.429 73.4455 320.111 72.6722C319.793 71.8989 319.632 71.0701 319.638 70.234V68.4044C319.637 67.5778 319.803 66.7596 320.125 65.9983C320.447 65.2371 320.919 64.5483 321.513 63.973C322.106 63.3977 322.809 62.9476 323.58 62.6494C324.351 62.3512 325.174 62.211 326 62.2372H333.339C336.885 62.2372 338.139 64.9097 338.139 68.4044V71.488" stroke="#171B26" stroke-width="2" stroke-linejoin="round"/>
<path d="M356.877 76.504C356.877 82.0685 355.227 87.5081 352.135 92.1347C349.043 96.7613 344.649 100.367 339.508 102.496C334.367 104.625 328.71 105.182 323.252 104.095C317.795 103.009 312.782 100.329 308.848 96.3931C304.914 92.4576 302.235 87.4439 301.151 81.9861C300.067 76.5282 300.625 70.8713 302.756 65.7309C304.887 60.5906 308.495 56.1976 313.122 53.1075C317.75 50.0175 323.19 48.3693 328.755 48.3713C332.449 48.3713 336.106 49.0991 339.519 50.513C342.932 51.9269 346.032 53.9993 348.644 56.6118C351.255 59.2243 353.327 62.3257 354.739 65.7388C356.152 69.152 356.878 72.81 356.877 76.504V76.504Z" stroke="#171B26" stroke-width="2" stroke-linejoin="round"/>
<path d="M328.888 63.2137V56.0187" stroke="#171B26" stroke-width="2" stroke-linejoin="round"/>
<path d="M328.888 99.189V93.0219" stroke="#171B26" stroke-width="2" stroke-linejoin="round"/>
<path d="M345.334 76.5759H349.446" stroke="#171B26" stroke-width="2" stroke-linejoin="round"/>
<path d="M308.331 76.5759H312.443" stroke="#171B26" stroke-width="2" stroke-linejoin="round"/>
<path d="M214.282 57.0466C214.282 48.5277 210.897 40.3577 204.874 34.3338C198.85 28.31 190.68 24.9259 182.161 24.9259C173.642 24.9259 165.472 28.31 159.448 34.3338C153.424 40.3577 150.04 48.5277 150.04 57.0466C150.04 70.7789 159.291 82.4554 170.597 86.9883V97.1333H194.238V86.7108C205.545 81.9723 214.282 70.4911 214.282 57.0466Z" fill="url(#paint13_linear)"/>
<path d="M193.21 98.1611H170.597V107.412H193.21V98.1611Z" stroke="#171B26" stroke-width="2" stroke-linejoin="round"/>
<path d="M182.932 108.44V185.529" stroke="#171B26" stroke-width="2" stroke-linejoin="round"/>
<path d="M182.932 99.1889V57.0465" stroke="#171B26" stroke-width="2" stroke-linejoin="round"/>
<path d="M188.462 51.5887C188.464 52.6706 188.145 53.7289 187.545 54.6295C186.946 55.5301 186.092 56.2325 185.093 56.648C184.094 57.0635 182.994 57.1732 181.933 56.9634C180.872 56.7536 179.896 56.2336 179.131 55.4692C178.365 54.7049 177.843 53.7306 177.631 52.6696C177.419 51.6085 177.527 50.5085 177.941 49.5087C178.354 48.509 179.055 47.6543 179.954 47.053C180.854 46.4517 181.912 46.1307 182.993 46.1307C184.442 46.1307 185.831 46.7054 186.856 47.7287C187.882 48.752 188.459 50.1402 188.462 51.5887V51.5887Z" stroke="#171B26" stroke-width="2" stroke-linejoin="round"/>
<path d="M201.947 48.5667C204.949 48.5667 204.949 51.6502 207.95 51.6502C210.951 51.6502 210.951 48.5667 213.953 48.5667C216.954 48.5667 216.954 51.6502 219.955 51.6502C222.957 51.6502 222.957 48.5667 225.958 48.5667C228.96 48.5667 228.96 51.6502 231.961 51.6502C234.962 51.6502 234.962 48.5667 237.974 48.5667C240.986 48.5667 240.975 51.6502 243.987 51.6502" stroke="#171B26" stroke-width="2" stroke-linejoin="round"/>
<path d="M604.356 205.83C607.357 205.83 607.357 208.913 610.359 208.913C613.36 208.913 613.36 205.83 616.361 205.83C619.363 205.83 619.363 208.913 622.364 208.913C625.366 208.913 625.365 205.83 628.367 205.83C631.368 205.83 631.368 208.913 634.37 208.913C637.371 208.913 637.371 205.83 640.383 205.83C643.394 205.83 643.384 208.913 646.396 208.913" stroke="#171B26" stroke-width="2" stroke-linejoin="round"/>
<path d="M171.111 210.455C174.113 210.455 174.113 213.539 177.114 213.539C180.115 213.539 180.115 210.455 183.117 210.455C186.118 210.455 186.118 213.539 189.119 213.539C192.121 213.539 192.121 210.455 195.122 210.455C198.124 210.455 198.124 213.539 201.125 213.539C204.126 213.539 204.126 210.455 207.138 210.455C210.15 210.455 210.139 213.539 213.151 213.539" stroke="#171B26" stroke-width="2" stroke-linejoin="round"/>
<path d="M1003.68 213.539C1006.68 213.539 1006.68 216.622 1009.68 216.622C1012.68 216.622 1012.68 213.539 1015.69 213.539C1018.69 213.539 1018.69 216.622 1021.69 216.622C1024.69 216.622 1024.69 213.539 1027.69 213.539C1030.69 213.539 1030.69 216.622 1033.69 216.622C1036.7 216.622 1036.7 213.539 1039.71 213.539C1042.72 213.539 1042.71 216.622 1045.72 216.622" stroke="#171B26" stroke-width="2" stroke-linejoin="round"/>
<path d="M678.362 25.4397C681.363 25.4397 681.363 28.5233 684.365 28.5233C687.366 28.5233 687.366 25.4397 690.367 25.4397C693.369 25.4397 693.369 28.5233 696.37 28.5233C699.371 28.5233 699.371 25.4397 702.373 25.4397C705.374 25.4397 705.374 28.5233 708.375 28.5233C711.377 28.5233 711.377 25.4397 714.388 25.4397C717.4 25.4397 717.39 28.5233 720.401 28.5233" stroke="#171B26" stroke-width="2" stroke-linejoin="round"/>
<path d="M411.631 70.1519C414.633 70.1519 414.633 73.2354 417.634 73.2354C420.635 73.2354 420.635 70.1519 423.637 70.1519C426.638 70.1519 426.638 73.2354 429.64 73.2354C432.641 73.2354 432.641 70.1519 435.642 70.1519C438.644 70.1519 438.644 73.2354 441.645 73.2354C444.646 73.2354 444.646 70.1519 447.658 70.1519C450.67 70.1519 450.659 73.2354 453.671 73.2354" stroke="#171B26" stroke-width="2" stroke-linejoin="round"/>
<path d="M931.216 68.6101C934.218 68.6101 934.218 71.6937 937.219 71.6937C940.22 71.6937 940.22 68.6101 943.222 68.6101C946.223 68.6101 946.223 71.6937 949.224 71.6937C952.226 71.6937 952.226 68.6101 955.227 68.6101C958.229 68.6101 958.229 71.6937 961.23 71.6937C964.231 71.6937 964.231 68.6101 967.243 68.6101C970.255 68.6101 970.244 71.6937 973.256 71.6937" stroke="#171B26" stroke-width="2" stroke-linejoin="round"/>
<path d="M18.4737 142.359H1V176.279H18.4737V142.359Z" fill="white"/>
<path d="M58.5603 192.724H38.0031V222.533H58.5603V192.724Z" fill="white"/>
<path d="M127.427 201.975V134.136" stroke="#171B26" stroke-width="2" stroke-linejoin="round"/>
<path d="M146.957 109.468V205.059C146.957 206.765 145.065 209.17 143.359 209.17H129.483C127.777 209.17 127.427 206.765 127.427 205.059V201.461L91.452 179.445V135.082L127.427 113.065V109.468C127.427 107.761 127.777 107.412 129.483 107.412H143.359C145.065 107.412 146.957 107.761 146.957 109.468Z" stroke="#171B26" stroke-width="2" stroke-linejoin="round"/>
<path d="M89.3963 123.858H22.5852C20.8822 123.858 19.5016 125.238 19.5016 126.941V188.613C19.5016 190.316 20.8822 191.697 22.5852 191.697H89.3963C91.0993 191.697 92.4799 190.316 92.4799 188.613V126.941C92.4799 125.238 91.0993 123.858 89.3963 123.858Z" stroke="#171B26" stroke-width="2" stroke-linejoin="round"/>
<path d="M58.5604 203.003H47.2539" stroke="#171B26" stroke-width="2" stroke-linejoin="round"/>
<path d="M58.5604 212.254H47.2539" stroke="#171B26" stroke-width="2" stroke-linejoin="round"/>
<path d="M79.1177 135.164H31.8359V160.861H79.1177V135.164Z" stroke="#171B26" stroke-width="2" stroke-linejoin="round"/>
<path d="M80.1455 172.167H68.839" stroke="#171B26" stroke-width="2" stroke-linejoin="round"/>
<path d="M80.1455 181.418H31.8359" stroke="#171B26" stroke-width="2" stroke-linejoin="round"/>
<path d="M62.6718 172.167H52.3932" stroke="#171B26" stroke-width="2" stroke-linejoin="round"/>
<path d="M1 142.359V176.279" stroke="#171B26" stroke-width="2" stroke-linejoin="round"/>
<path d="M750.312 173.195H729.755V218.421H750.312V173.195Z" stroke="#171B26" stroke-width="2" stroke-linejoin="round"/>
<path d="M769.842 154.693H750.312V218.421H769.842V154.693Z" stroke="#171B26" stroke-width="2" stroke-linejoin="round"/>
<path d="M729.755 197.864H710.226V218.421H729.755V197.864Z" stroke="#171B26" stroke-width="2" stroke-linejoin="round"/>
<path d="M694.808 218.421H796.566" stroke="#171B26" stroke-width="2" stroke-linejoin="round"/>
<path d="M367.947 99.189V125.913H391.588" stroke="#171B26" stroke-width="2" stroke-linejoin="round"/>
<path d="M751.34 126.941V99.189H784.232" stroke="#171B26" stroke-width="2" stroke-linejoin="round"/>
<path d="M953.028 152.638L937.301 168.364" stroke="#171B26" stroke-width="2" stroke-linejoin="round"/>
<path d="M971.467 153.368L986.053 167.953" stroke="#171B26" stroke-width="2" stroke-linejoin="round"/>
<path d="M962.823 164.212L921.195 133.108H1004.45L962.823 164.212Z" fill="url(#paint14_linear)"/>
<path d="M1004.19 132.081H920.938V184.502H1004.19V132.081Z" stroke="#171B26" stroke-width="2" stroke-linejoin="round"/>
<path d="M1108.26 106.389L1098.45 116.201L1108.26 126.012L1118.08 116.201L1108.26 106.389Z" fill="white"/>
<path d="M1055.99 54.1114L1046.18 63.9233L1098.51 116.254L1108.32 106.442L1055.99 54.1114Z" fill="url(#paint15_linear)"/>
<path d="M1039.22 46.6855L1055.96 54.0862L1046.61 63.4294L1039.22 46.6855Z" fill="white"/>
<path d="M1103.38 111.318L1051.06 58.9893" stroke="#171B26" stroke-width="2" stroke-linejoin="round"/>
<path d="M935.328 40.6007H1014.47L1042.74 12.0775" stroke="#171B26" stroke-width="2" stroke-linejoin="round"/>
<path d="M1030.92 11.8206H1043.25V23.1271" stroke="#171B26" stroke-width="2" stroke-linejoin="round"/>
<path d="M51.3654 105.356V70.4087H77.0619" stroke="#171B26" stroke-width="2" stroke-linejoin="round"/>
<path d="M83.2291 70.4087H92.4799" stroke="#171B26" stroke-width="2" stroke-linejoin="round"/>
<path d="M806.845 41.6287V60.1302" stroke="#171B26" stroke-width="2" stroke-linejoin="round"/>
<path d="M807.102 71.1797C810.65 71.1797 813.526 68.3035 813.526 64.7556C813.526 61.2076 810.65 58.3314 807.102 58.3314C803.554 58.3314 800.678 61.2076 800.678 64.7556C800.678 68.3035 803.554 71.1797 807.102 71.1797Z" stroke="#171B26" stroke-width="2" stroke-linejoin="round"/>
</g>
<defs>
<linearGradient id="paint0_linear" x1="661.815" y1="161.357" x2="469.563" y2="144.231" gradientUnits="userSpaceOnUse">
<stop stop-color="#FF8B37"/>
<stop offset="1" stop-color="#FBC570"/>
</linearGradient>
<linearGradient id="paint1_linear" x1="597.675" y1="115.088" x2="519.68" y2="24.4187" gradientUnits="userSpaceOnUse">
<stop stop-color="#276FFF"/>
<stop offset="1" stop-color="#99C5FF"/>
</linearGradient>
<linearGradient id="paint2_linear" x1="764.073" y1="109.941" x2="687.46" y2="103.116" gradientUnits="userSpaceOnUse">
<stop stop-color="#FF8B37"/>
<stop offset="1" stop-color="#FBC570"/>
</linearGradient>
<linearGradient id="paint3_linear" x1="747.084" y1="94.9582" x2="701.799" y2="90.9242" gradientUnits="userSpaceOnUse">
<stop stop-color="#FF8B37"/>
<stop offset="1" stop-color="#FBC570"/>
</linearGradient>
<linearGradient id="paint4_linear" x1="1052.89" y1="28.2238" x2="1026.65" y2="25.8867" gradientUnits="userSpaceOnUse">
<stop stop-color="#FF8B37"/>
<stop offset="1" stop-color="#FBC570"/>
</linearGradient>
<linearGradient id="paint5_linear" x1="369.374" y1="114.566" x2="292.76" y2="107.742" gradientUnits="userSpaceOnUse">
<stop stop-color="#FF8B37"/>
<stop offset="1" stop-color="#FBC570"/>
</linearGradient>
<linearGradient id="paint6_linear" x1="352.384" y1="99.5837" x2="307.099" y2="95.5497" gradientUnits="userSpaceOnUse">
<stop stop-color="#FF8B37"/>
<stop offset="1" stop-color="#FBC570"/>
</linearGradient>
<linearGradient id="paint7_linear" x1="881.25" y1="216.325" x2="804.636" y2="209.5" gradientUnits="userSpaceOnUse">
<stop stop-color="#FF8B37"/>
<stop offset="1" stop-color="#FBC570"/>
</linearGradient>
<linearGradient id="paint8_linear" x1="864.26" y1="201.342" x2="818.975" y2="197.308" gradientUnits="userSpaceOnUse">
<stop stop-color="#FF8B37"/>
<stop offset="1" stop-color="#FBC570"/>
</linearGradient>
<linearGradient id="paint9_linear" x1="478.841" y1="220.95" x2="402.228" y2="214.125" gradientUnits="userSpaceOnUse">
<stop stop-color="#FF8B37"/>
<stop offset="1" stop-color="#FBC570"/>
</linearGradient>
<linearGradient id="paint10_linear" x1="461.831" y1="205.968" x2="416.546" y2="201.934" gradientUnits="userSpaceOnUse">
<stop stop-color="#FF8B37"/>
<stop offset="1" stop-color="#FBC570"/>
</linearGradient>
<linearGradient id="paint11_linear" x1="942.018" y1="111.757" x2="825.3" y2="100.872" gradientUnits="userSpaceOnUse">
<stop stop-color="#FF8B37"/>
<stop offset="1" stop-color="#FBC570"/>
</linearGradient>
<linearGradient id="paint12_linear" x1="356.136" y1="252.169" x2="239.404" y2="241.355" gradientUnits="userSpaceOnUse">
<stop stop-color="#FF8B37"/>
<stop offset="1" stop-color="#FBC570"/>
</linearGradient>
<linearGradient id="paint13_linear" x1="231.997" y1="112.377" x2="138.247" y2="104.947" gradientUnits="userSpaceOnUse">
<stop stop-color="#FF8B37"/>
<stop offset="1" stop-color="#FBC570"/>
</linearGradient>
<linearGradient id="paint14_linear" x1="1027.41" y1="170.778" x2="911.726" y2="143.193" gradientUnits="userSpaceOnUse">
<stop stop-color="#FF8B37"/>
<stop offset="1" stop-color="#FBC570"/>
</linearGradient>
<linearGradient id="paint15_linear" x1="1122.07" y1="114.783" x2="1107.43" y2="128.948" gradientUnits="userSpaceOnUse">
<stop stop-color="#FF8B37"/>
<stop offset="1" stop-color="#FBC570"/>
</linearGradient>
</defs>
</svg>
