<svg width="375" height="220" viewBox="0 0 375 220" fill="none" xmlns="http://www.w3.org/2000/svg">
<path d="M239.583 45.5242L175.977 1V27.7675H0V65.9312H175.977V90.0485L239.583 45.5242Z" fill="#F8F8F8"/>
<path d="M162 180.459L218.37 219.918V196.666H375.268V162.844H218.37V141L162 180.459Z" fill="#F8F8F8"/>
<path d="M279.729 14.6159C279.729 17.3736 278.911 20.0692 277.378 22.3615C275.845 24.6537 273.666 26.4395 271.117 27.4927C268.569 28.5458 265.765 28.819 263.061 28.2775C260.357 27.7361 257.874 26.4045 255.928 24.4512C253.981 22.498 252.658 20.011 252.125 17.3052C251.593 14.5994 251.876 11.7965 252.937 9.25142C253.999 6.70636 255.792 4.53361 258.09 3.0083C260.387 1.483 263.086 0.673765 265.843 0.683063C269.53 0.695494 273.062 2.1689 275.665 4.78048C278.268 7.39205 279.729 10.9288 279.729 14.6159Z" fill="white"/>
<path d="M273.866 14.7756C273.866 16.4034 273.384 17.9946 272.479 19.348C271.575 20.7014 270.29 21.7563 268.786 22.3792C267.282 23.0021 265.627 23.1651 264.031 22.8475C262.434 22.53 260.968 21.7461 259.817 20.5951C258.666 19.4441 257.882 17.9777 257.564 16.3812C257.247 14.7847 257.41 13.1299 258.033 11.6261C258.656 10.1222 259.711 8.83688 261.064 7.93255C262.417 7.02822 264.009 6.54553 265.636 6.54553C267.819 6.54553 269.912 7.41263 271.456 8.95606C272.999 10.4995 273.866 12.5929 273.866 14.7756Z" fill="url(#paint0_linear)"/>
<path d="M108.269 164.232C108.269 168.985 106.86 173.632 104.219 177.584C101.578 181.536 97.8249 184.616 93.4335 186.435C89.0421 188.254 84.21 188.73 79.5482 187.803C74.8863 186.876 70.6041 184.587 67.2431 181.226C63.8821 177.865 61.5932 173.583 60.6659 168.921C59.7386 164.259 60.2145 159.427 62.0335 155.035C63.8524 150.644 66.9328 146.891 70.8849 144.25C74.837 141.609 79.4835 140.2 84.2367 140.2C87.3927 140.2 90.5177 140.821 93.4335 142.029C96.3493 143.237 98.9986 145.007 101.23 147.239C103.462 149.47 105.232 152.12 106.44 155.035C107.648 157.951 108.269 161.076 108.269 164.232Z" fill="url(#paint1_linear)"/>
<path d="M98.1611 164.514C98.1611 167.324 97.328 170.07 95.7671 172.406C94.2062 174.742 91.9876 176.563 89.3919 177.638C86.7962 178.713 83.9401 178.995 81.1845 178.446C78.4289 177.898 75.8978 176.545 73.9111 174.559C71.9245 172.572 70.5716 170.041 70.0234 167.285C69.4753 164.53 69.7566 161.674 70.8318 159.078C71.907 156.482 73.7277 154.264 76.0637 152.703C78.3998 151.142 81.1463 150.309 83.9558 150.309C87.7233 150.309 91.3364 151.805 94.0005 154.469C96.6645 157.133 98.1611 160.747 98.1611 164.514Z" fill="url(#paint2_linear)"/>
<path d="M83.5791 18.064V68.7973H120.22V88.0571L140.194 68.7973H156.861V18.064H83.5791Z" fill="url(#paint3_linear)"/>
<path d="M148.406 60.3418H141.829" stroke="#171B26" stroke-width="2" stroke-linejoin="round"/>
<path d="M137.131 60.3418H130.555" stroke="#171B26" stroke-width="2" stroke-linejoin="round"/>
<path d="M148.405 48.1282H92.0347" stroke="#171B26" stroke-width="2" stroke-linejoin="round"/>
<path d="M148.405 36.8541H92.0347" stroke="#171B26" stroke-width="2" stroke-linejoin="round"/>
<path d="M148.405 25.58H111.764" stroke="#171B26" stroke-width="2" stroke-linejoin="round"/>
<path d="M76.0627 168.385V171.307C76.0627 174.548 78.637 177.78 81.8783 177.78H88.5863C91.8276 177.78 92.9738 174.548 92.9738 171.307V169.625C92.9738 166.384 91.8276 163.687 88.5863 163.687H81.8783C81.1141 163.695 80.356 163.55 79.6483 163.262C78.9405 162.973 78.2973 162.547 77.756 162.007C77.2147 161.468 76.7863 160.826 76.4955 160.119C76.2048 159.412 76.0577 158.655 76.0627 157.89V156.218C76.056 155.459 76.2028 154.706 76.4944 154.004C76.786 153.303 77.2162 152.668 77.7594 152.137C78.3025 151.606 78.9474 151.19 79.6552 150.915C80.363 150.64 81.1191 150.51 81.8783 150.534H88.5863C91.8276 150.534 92.9738 152.977 92.9738 156.218V158.99" stroke="#171B26" stroke-width="2" stroke-linejoin="round"/>
<path d="M110.102 163.621C110.102 168.708 108.594 173.68 105.768 177.908C102.942 182.137 98.9251 185.433 94.2258 187.379C89.5266 189.325 84.3559 189.834 79.3676 188.841C74.3792 187.848 69.7974 185.398 66.2015 181.801C62.6057 178.204 60.1574 173.621 59.1663 168.632C58.1752 163.644 58.6857 158.473 60.6334 153.774C62.5811 149.076 65.8784 145.061 70.1084 142.236C74.3383 139.412 79.3108 137.905 84.397 137.907C87.7734 137.907 91.1167 138.572 94.236 139.865C97.3553 141.157 100.189 143.051 102.576 145.439C104.963 147.827 106.857 150.662 108.148 153.782C109.439 156.901 110.103 160.245 110.102 163.621V163.621Z" stroke="#171B26" stroke-width="2" stroke-linejoin="round"/>
<path d="M84.5186 151.474V144.897" stroke="#171B26" stroke-width="2" stroke-linejoin="round"/>
<path d="M84.5186 184.356V178.719" stroke="#171B26" stroke-width="2" stroke-linejoin="round"/>
<path d="M99.5503 163.687H103.308" stroke="#171B26" stroke-width="2" stroke-linejoin="round"/>
<path d="M65.7285 163.687H69.4865" stroke="#171B26" stroke-width="2" stroke-linejoin="round"/>
<path d="M233.431 195.865C236.175 195.865 236.175 198.684 238.918 198.684C241.661 198.684 241.661 195.865 244.405 195.865C247.148 195.865 247.148 198.684 249.891 198.684C252.635 198.684 252.635 195.865 255.378 195.865C258.121 195.865 258.121 198.684 260.865 198.684C263.608 198.684 263.608 195.865 266.361 195.865C269.114 195.865 269.104 198.684 271.857 198.684" stroke="#171B26" stroke-width="2" stroke-linejoin="round"/>
<path d="M167.195 63.3951C169.938 63.3951 169.938 66.2137 172.682 66.2137C175.425 66.2137 175.425 63.3951 178.168 63.3951C180.912 63.3951 180.912 66.2137 183.655 66.2137C186.398 66.2137 186.398 63.3951 189.142 63.3951C191.885 63.3951 191.885 66.2137 194.628 66.2137C197.372 66.2137 197.372 63.3951 200.124 63.3951C202.877 63.3951 202.868 66.2137 205.621 66.2137" stroke="#171B26" stroke-width="2" stroke-linejoin="round"/>
<path d="M187.131 140.2L172.757 154.574" stroke="#171B26" stroke-width="2" stroke-linejoin="round"/>
<path d="M203.986 140.867L217.317 154.198" stroke="#171B26" stroke-width="2" stroke-linejoin="round"/>
<path d="M196.085 150.778L158.035 122.349H234.135L196.085 150.778Z" fill="url(#paint4_linear)"/>
<path d="M233.9 121.41H157.8V169.324H233.9V121.41Z" stroke="#171B26" stroke-width="2" stroke-linejoin="round"/>
<path d="M329.024 97.9262L320.055 106.895L329.024 115.863L337.992 106.895L329.024 97.9262Z" fill="white"/>
<path d="M281.243 50.1427L272.274 59.1112L320.106 106.943L329.075 97.9746L281.243 50.1427Z" fill="url(#paint5_linear)"/>
<path d="M265.918 43.3553L281.213 50.1198L272.673 58.6599L265.918 43.3553Z" fill="white"/>
<path d="M324.562 102.432L276.732 54.6013" stroke="#171B26" stroke-width="2" stroke-linejoin="round"/>
<path d="M170.953 37.7935H243.295L269.131 11.7222" stroke="#171B26" stroke-width="2" stroke-linejoin="round"/>
<path d="M258.327 11.4874H269.601V21.822" stroke="#171B26" stroke-width="2" stroke-linejoin="round"/>
<path d="M53.5156 38.7332V55.6443" stroke="#171B26" stroke-width="2" stroke-linejoin="round"/>
<path d="M53.7498 65.7439C56.9928 65.7439 59.6218 63.115 59.6218 59.872C59.6218 56.6291 56.9928 54.0001 53.7498 54.0001C50.5069 54.0001 47.8779 56.6291 47.8779 59.872C47.8779 63.115 50.5069 65.7439 53.7498 65.7439Z" stroke="#171B26" stroke-width="2" stroke-linejoin="round"/>
<defs>
<linearGradient id="paint0_linear" x1="273.866" y1="24.6517" x2="257.406" y2="5.51661" gradientUnits="userSpaceOnUse">
<stop stop-color="#276FFF"/>
<stop offset="1" stop-color="#99C5FF"/>
</linearGradient>
<linearGradient id="paint1_linear" x1="121.524" y1="198.412" x2="51.496" y2="192.174" gradientUnits="userSpaceOnUse">
<stop stop-color="#FF8B37"/>
<stop offset="1" stop-color="#FBC570"/>
</linearGradient>
<linearGradient id="paint2_linear" x1="105.996" y1="184.717" x2="64.6032" y2="181.03" gradientUnits="userSpaceOnUse">
<stop stop-color="#FF8B37"/>
<stop offset="1" stop-color="#FBC570"/>
</linearGradient>
<linearGradient id="paint3_linear" x1="177.068" y1="102.833" x2="70.3833" y2="92.8835" gradientUnits="userSpaceOnUse">
<stop stop-color="#FF8B37"/>
<stop offset="1" stop-color="#FBC570"/>
</linearGradient>
<linearGradient id="paint4_linear" x1="234.134" y1="153.621" x2="217.385" y2="101.499" gradientUnits="userSpaceOnUse">
<stop stop-color="#276FFF"/>
<stop offset="1" stop-color="#99C5FF"/>
</linearGradient>
<linearGradient id="paint5_linear" x1="341.646" y1="105.599" x2="328.259" y2="118.546" gradientUnits="userSpaceOnUse">
<stop stop-color="#FF8B37"/>
<stop offset="1" stop-color="#FBC570"/>
</linearGradient>
</defs>
</svg>
