<svg width="1204" height="266" viewBox="0 0 1204 266" fill="none" xmlns="http://www.w3.org/2000/svg">
<path d="M345.013 160.413H365.346V124.59H345.013C344.844 124.59 341.161 116.252 340.893 115.742L355.854 101.305L329.936 75.584L314.304 90.7103C313.795 90.4417 306.386 86.8952 303.704 86.725V66.3774H267.034V86.725C267.034 86.8952 258.24 90.585 257.73 90.8536L243.091 75.8527L217.306 101.824L232.348 115.706C232.08 116.216 228.478 124.554 228.308 124.554H207.153V160.377H228.308C228.478 165.751 232.16 171.42 232.428 171.922L217.467 187.702L243.386 214.094L257.686 199.299C258.195 199.568 266.989 203.455 266.989 203.625V224.895H303.633V203.661C306.314 203.491 313.723 199.801 314.233 199.532L329.596 214.524L355.711 188.552L340.831 171.984C341.072 171.456 344.844 165.787 345.013 160.413Z" fill="#171B26"/>
<path d="M72.4215 2.11947H84.487C85.9706 2.11947 87.1683 1.97617 87.1683 3.46284V86.7518C87.1683 88.2384 85.9706 90.7819 84.487 90.7819H72.4215C70.9379 90.7819 69.7402 88.2384 69.7402 86.7518V3.46284C69.7402 1.97617 70.9379 2.11947 72.4215 2.11947Z" fill="url(#paint0_linear)"/>
<path d="M118.002 25.7806V64.4338L87.1682 83.6082V6.61523L118.002 25.7806Z" fill="#171B26"/>
<path d="M178.33 16.8965H120.684C119.203 16.8965 118.002 18.0994 118.002 19.5832V73.3181C118.002 74.8019 119.203 76.0048 120.684 76.0048H178.33C179.811 76.0048 181.011 74.8019 181.011 73.3181V19.5832C181.011 18.0994 179.811 16.8965 178.33 16.8965Z" fill="#171B26"/>
<path d="M196.428 32.3452H181.235V61.8992H196.428V32.3452Z" fill="url(#paint1_linear)"/>
<path d="M164.254 77.124H146.379V102.2H164.254V77.124Z" fill="url(#paint2_linear)"/>
<path d="M87.3916 85.1844V26.0762" stroke="white" stroke-width="2" stroke-linejoin="round"/>
<path d="M69.5167 4.13468V87.4235C69.5167 88.9101 71.6081 90.558 73.0917 90.558H85.1572C86.6409 90.558 87.3916 88.9101 87.3916 87.4235V84.2889L117.779 65.1146V26.4525L87.3916 7.2692V4.13468C87.433 3.83091 87.4037 3.52166 87.3061 3.2311C87.2085 2.94055 87.0451 2.67656 86.8287 2.45977C86.6124 2.24298 86.3489 2.07926 86.059 1.98141C85.769 1.88357 85.4604 1.85424 85.1572 1.89573H73.0917C71.6081 1.89573 69.5167 2.64802 69.5167 4.13468Z" stroke="white" stroke-width="2" stroke-linejoin="round"/>
<path d="M178.554 17.1201H120.46C118.979 17.1201 117.779 18.323 117.779 19.8069V73.5417C117.779 75.0255 118.979 76.2284 120.46 76.2284H178.554C180.034 76.2284 181.235 75.0255 181.235 73.5417V19.8069C181.235 18.323 180.034 17.1201 178.554 17.1201Z" stroke="white" stroke-width="2" stroke-linejoin="round"/>
<path d="M146.379 85.1846H156.21" stroke="white" stroke-width="2" stroke-linejoin="round"/>
<path d="M146.379 93.2446H156.21" stroke="white" stroke-width="2" stroke-linejoin="round"/>
<path d="M170.51 26.9717H129.398V50.2569H170.51V26.9717Z" fill="url(#paint3_linear)"/>
<path d="M127.61 58.3169H137.441" stroke="white" stroke-width="2" stroke-linejoin="round"/>
<path d="M127.61 66.3774H169.616" stroke="white" stroke-width="2" stroke-linejoin="round"/>
<path d="M142.804 58.3169H151.741" stroke="white" stroke-width="2" stroke-linejoin="round"/>
<path d="M197.322 32.3452V45.7789" stroke="white" stroke-width="2" stroke-linejoin="round"/>
<path d="M713.236 95.0359H733.569V58.3171H713.236C713.066 58.3171 709.384 50.2032 709.116 49.6927L724.077 35.3634L698.159 9.69608L682.5 24.8582C681.991 24.5896 674.582 21.0699 671.9 20.8998V1H635.257V20.8998C635.257 21.0699 626.462 24.7597 625.953 25.0284L611.313 10.0274L585.529 35.9993L600.571 49.6569C600.303 50.1673 596.701 58.2813 596.531 58.2813H575.376V95.0001H596.531C596.701 100.374 600.383 105.819 600.651 106.32L585.69 121.984L611.608 148.332L625.908 133.501C626.418 133.77 635.212 137.63 635.212 137.8V159.518H671.856V137.836C674.537 137.665 681.946 133.976 682.456 133.707L697.819 148.699L723.934 122.727L709.053 106.383C709.295 105.854 713.066 100.409 713.236 95.0359Z" fill="#171B26"/>
<path d="M1183.35 152.353H1203.68V116.53H1183.35C1183.18 116.53 1179.49 108.192 1179.23 107.681L1194.19 93.2445L1168.27 67.5235L1152.64 82.6498C1152.13 82.3811 1144.72 78.8346 1142.04 78.6645V58.3169H1105.39V78.6645C1105.39 78.8346 1096.6 82.5244 1096.09 82.7931L1081.45 67.7921L1055.67 93.7639L1070.71 107.645C1070.44 108.156 1066.84 116.494 1066.67 116.494H1045.49V152.317H1066.64C1066.81 157.69 1070.49 163.359 1070.76 163.861L1055.8 179.641L1081.72 206.034L1096.02 191.239C1096.53 191.508 1105.32 195.394 1105.32 195.564V216.835H1141.97V195.6C1144.65 195.43 1152.06 191.74 1152.56 191.472L1167.93 206.464L1194.04 180.492L1179.16 163.924C1179.4 163.395 1183.18 157.726 1183.35 152.353Z" fill="#171B26"/>
<path d="M566.894 228.021L547.053 232.23L551.88 237.066L543.344 245.61L549.985 252.264L558.511 243.711L562.694 247.902L566.894 228.021Z" fill="url(#paint4_linear)"/>
<path d="M760.837 20.6938L740.996 24.9031L745.822 29.7392L737.287 38.2829L743.927 44.9371L752.454 36.3843L756.636 40.5756L760.837 20.6938Z" fill="url(#paint5_linear)"/>
<path d="M290.727 43.5312L294.928 63.4131L299.754 58.5769L308.289 67.1297L314.921 60.4756L306.395 51.9318L310.568 47.7405L290.727 43.5312Z" fill="url(#paint6_linear)"/>
<path d="M30.2009 216.378L34.4015 236.26L39.2277 231.424L47.763 239.976L54.3946 233.322L45.8593 224.778L50.042 220.587L30.2009 216.378Z" fill="url(#paint7_linear)"/>
<path d="M919.467 28.7632H881.93V52.0484H919.467V28.7632Z" fill="url(#paint8_linear)"/>
<path d="M919.467 41.3008H991.861" stroke="white" stroke-width="2" stroke-linejoin="round"/>
<path d="M887.292 35.9277H894.443" stroke="white" stroke-width="2" stroke-linejoin="round"/>
<path d="M887.292 43.0923H913.211" stroke="white" stroke-width="2" stroke-linejoin="round"/>
<path d="M1029.4 28.7632H991.861V52.0484H1029.4V28.7632Z" fill="url(#paint9_linear)"/>
<path d="M997.223 35.9277H1004.37" stroke="white" stroke-width="2" stroke-linejoin="round"/>
<path d="M997.223 43.0923H1023.14" stroke="white" stroke-width="2" stroke-linejoin="round"/>
<path d="M974.88 28.7632H937.342V52.0484H974.88V28.7632Z" fill="url(#paint10_linear)"/>
<path d="M942.705 35.9277H948.961" stroke="white" stroke-width="2" stroke-linejoin="round"/>
<path d="M942.705 43.0923H967.729" stroke="white" stroke-width="2" stroke-linejoin="round"/>
<path d="M38.2357 155.935H0.698486V179.22H38.2357V155.935Z" fill="url(#paint11_linear)"/>
<path d="M38.2357 168.474H110.629" stroke="white" stroke-width="2" stroke-linejoin="round"/>
<path d="M6.06091 163.1H13.2109" stroke="white" stroke-width="2" stroke-linejoin="round"/>
<path d="M6.06091 170.265H31.9795" stroke="white" stroke-width="2" stroke-linejoin="round"/>
<path d="M148.166 155.935H110.629V179.22H148.166V155.935Z" fill="url(#paint12_linear)"/>
<path d="M115.991 163.1H123.141" stroke="white" stroke-width="2" stroke-linejoin="round"/>
<path d="M115.991 170.265H141.91" stroke="white" stroke-width="2" stroke-linejoin="round"/>
<path d="M93.6479 155.935H56.1106V179.22H93.6479V155.935Z" fill="url(#paint13_linear)"/>
<path d="M61.473 163.1H67.7292" stroke="white" stroke-width="2" stroke-linejoin="round"/>
<path d="M61.473 170.265H86.4979" stroke="white" stroke-width="2" stroke-linejoin="round"/>
<path d="M286.697 129.963H280.44" stroke="white" stroke-width="2" stroke-linejoin="round"/>
<path d="M286.697 118.321H241.116" stroke="white" stroke-width="2" stroke-linejoin="round"/>
<path d="M286.697 107.574H241.116" stroke="white" stroke-width="2" stroke-linejoin="round"/>
<path d="M275.078 129.963H267.928" stroke="white" stroke-width="2" stroke-linejoin="round"/>
<path d="M262.566 129.963H256.309" stroke="white" stroke-width="2" stroke-linejoin="round"/>
<path d="M1099.11 108.47H1092.85" stroke="white" stroke-width="2" stroke-linejoin="round"/>
<path d="M1099.11 96.8271H1053.53" stroke="white" stroke-width="2" stroke-linejoin="round"/>
<path d="M1099.11 86.0801H1053.53" stroke="white" stroke-width="2" stroke-linejoin="round"/>
<path d="M1087.49 108.47H1080.34" stroke="white" stroke-width="2" stroke-linejoin="round"/>
<path d="M1074.98 108.47H1068.72" stroke="white" stroke-width="2" stroke-linejoin="round"/>
<path d="M580.738 172.056H586.995" stroke="white" stroke-width="2" stroke-linejoin="round"/>
<path d="M580.738 159.518H626.319" stroke="white" stroke-width="2" stroke-linejoin="round"/>
<path d="M580.738 148.771H626.319" stroke="white" stroke-width="2" stroke-linejoin="round"/>
<path d="M592.357 172.056H599.507" stroke="white" stroke-width="2" stroke-linejoin="round"/>
<path d="M604.87 172.056H611.126" stroke="white" stroke-width="2" stroke-linejoin="round"/>
<path d="M570.907 41.3008H564.651" stroke="white" stroke-width="2" stroke-linejoin="round"/>
<path d="M560.182 41.3008H553.926" stroke="white" stroke-width="2" stroke-linejoin="round"/>
<path d="M549.457 41.3008H529.795" stroke="white" stroke-width="2" stroke-linejoin="round"/>
<path d="M524.433 41.3008H519.964" stroke="white" stroke-width="2" stroke-linejoin="round"/>
<path d="M301.89 191.758H308.146" stroke="white" stroke-width="2" stroke-linejoin="round"/>
<path d="M312.615 191.758H318.871" stroke="white" stroke-width="2" stroke-linejoin="round"/>
<path d="M323.34 191.758H343.003" stroke="white" stroke-width="2" stroke-linejoin="round"/>
<path d="M348.365 191.758H352.834" stroke="white" stroke-width="2" stroke-linejoin="round"/>
<path d="M736.25 154.144H742.506" stroke="white" stroke-width="2" stroke-linejoin="round"/>
<path d="M746.975 154.144H753.231" stroke="white" stroke-width="2" stroke-linejoin="round"/>
<path d="M757.7 154.144H777.362" stroke="white" stroke-width="2" stroke-linejoin="round"/>
<path d="M782.725 154.144H787.193" stroke="white" stroke-width="2" stroke-linejoin="round"/>
<path d="M1029.4 205.192H1023.14" stroke="white" stroke-width="2" stroke-linejoin="round"/>
<path d="M1018.67 205.192H1012.42" stroke="white" stroke-width="2" stroke-linejoin="round"/>
<path d="M1007.95 205.192H988.286" stroke="white" stroke-width="2" stroke-linejoin="round"/>
<path d="M982.923 205.192H978.454" stroke="white" stroke-width="2" stroke-linejoin="round"/>
<path d="M208.405 220.981L395.733 86.528L616.694 220.981L795.63 39.2324L1104.34 168.303" stroke="white" stroke-width="2" stroke-linejoin="round"/>
<path d="M208.825 233.636C216.416 233.636 222.57 227.469 222.57 219.862C222.57 212.255 216.416 206.088 208.825 206.088C201.233 206.088 195.079 212.255 195.079 219.862C195.079 227.469 201.233 233.636 208.825 233.636Z" fill="url(#paint14_linear)"/>
<path d="M215.841 219.924C215.842 221.301 215.436 222.648 214.674 223.794C213.912 224.939 212.827 225.833 211.558 226.36C210.288 226.888 208.891 227.027 207.544 226.759C206.196 226.49 204.957 225.827 203.986 224.854C203.014 223.88 202.352 222.639 202.085 221.289C201.817 219.938 201.955 218.538 202.482 217.266C203.009 215.994 203.9 214.908 205.044 214.144C206.187 213.38 207.531 212.973 208.905 212.975C210.744 212.977 212.506 213.71 213.807 215.013C215.107 216.316 215.838 218.082 215.841 219.924Z" fill="white"/>
<path d="M395.17 100.633C402.757 100.633 408.907 94.4702 408.907 86.868C408.907 79.2658 402.757 73.103 395.17 73.103C387.584 73.103 381.433 79.2658 381.433 86.868C381.433 94.4702 387.584 100.633 395.17 100.633Z" fill="url(#paint15_linear)"/>
<path d="M402.186 86.9757C402.188 88.3527 401.782 89.6994 401.02 90.8451C400.257 91.9908 399.173 92.8841 397.904 93.4119C396.634 93.9397 395.237 94.0783 393.889 93.8101C392.541 93.5419 391.303 92.8789 390.331 91.9052C389.36 90.9315 388.698 89.6907 388.43 88.34C388.163 86.9893 388.301 85.5894 388.828 84.3175C389.355 83.0456 390.246 81.9589 391.389 81.1949C392.533 80.431 393.877 80.0241 395.251 80.0259C397.089 80.0283 398.852 80.7612 400.152 82.0641C401.452 83.3669 402.184 85.1332 402.186 86.9757Z" fill="white"/>
<path d="M613.691 234.97C621.277 234.97 627.427 228.807 627.427 221.205C627.427 213.603 621.277 207.44 613.691 207.44C606.104 207.44 599.954 213.603 599.954 221.205C599.954 228.807 606.104 234.97 613.691 234.97Z" fill="white"/>
<path d="M620.707 221.312C620.708 222.689 620.302 224.036 619.54 225.182C618.778 226.327 617.693 227.221 616.424 227.749C615.155 228.276 613.758 228.415 612.41 228.147C611.062 227.878 609.824 227.216 608.852 226.242C607.88 225.268 607.219 224.027 606.951 222.677C606.683 221.326 606.821 219.926 607.348 218.654C607.875 217.382 608.766 216.296 609.91 215.532C611.053 214.768 612.397 214.361 613.771 214.363C615.61 214.365 617.372 215.098 618.673 216.401C619.973 217.704 620.704 219.47 620.707 221.312Z" fill="url(#paint16_linear)"/>
<path d="M794.674 53.615C802.261 53.615 808.411 47.4522 808.411 39.85C808.411 32.2478 802.261 26.085 794.674 26.085C787.087 26.085 780.937 32.2478 780.937 39.85C780.937 47.4522 787.087 53.615 794.674 53.615Z" fill="white"/>
<path d="M801.69 39.9131C801.691 41.2898 801.286 42.6361 800.524 43.7816C799.762 44.9272 798.678 45.8205 797.409 46.3485C796.14 46.8766 794.744 47.0157 793.396 46.7482C792.048 46.4807 790.81 45.8187 789.838 44.8458C788.866 43.873 788.204 42.6331 787.935 41.283C787.666 39.9329 787.803 38.5333 788.329 37.2612C788.854 35.9891 789.744 34.9018 790.886 34.1368C792.029 33.3717 793.372 32.9634 794.745 32.9634C796.586 32.9634 798.351 33.6953 799.653 34.9984C800.955 36.3015 801.687 38.0691 801.69 39.9131Z" fill="url(#paint17_linear)"/>
<path d="M1104.36 181.236C1111.94 181.236 1118.09 175.073 1118.09 167.471C1118.09 159.868 1111.94 153.706 1104.36 153.706C1096.77 153.706 1090.62 159.868 1090.62 167.471C1090.62 175.073 1096.77 181.236 1104.36 181.236Z" fill="white"/>
<path d="M1111.37 167.578C1111.37 168.954 1110.97 170.3 1110.21 171.446C1109.44 172.591 1108.36 173.485 1107.09 174.013C1105.82 174.541 1104.43 174.68 1103.08 174.412C1101.73 174.145 1100.49 173.483 1099.52 172.51C1098.55 171.537 1097.89 170.297 1097.62 168.947C1097.35 167.597 1097.49 166.198 1098.01 164.926C1098.54 163.654 1099.43 162.566 1100.57 161.801C1101.71 161.036 1103.05 160.628 1104.43 160.628C1106.27 160.628 1108.03 161.36 1109.34 162.663C1110.64 163.966 1111.37 165.734 1111.37 167.578Z" fill="url(#paint18_linear)"/>
<path d="M675.475 66.3774H511.92V95.9315H675.475V66.3774Z" stroke="white" stroke-width="2" stroke-linejoin="round"/>
<path d="M637.715 66.6011V96.1552" stroke="white" stroke-width="2" stroke-linejoin="round"/>
<path d="M611.126 72.6465H519.07V90.558H611.126V72.6465Z" fill="url(#paint19_linear)"/>
<path d="M534.997 81.2977C534.997 82.0788 534.765 82.8424 534.332 83.4919C533.899 84.1414 533.284 84.6476 532.563 84.9466C531.843 85.2455 531.051 85.3237 530.286 85.1713C529.522 85.0189 528.819 84.6428 528.268 84.0904C527.717 83.5381 527.342 82.8343 527.189 82.0682C527.037 81.3021 527.115 80.5079 527.414 79.7863C527.712 79.0646 528.217 78.4477 528.865 78.0138C529.514 77.5798 530.276 77.3482 531.055 77.3482C531.573 77.347 532.086 77.4483 532.565 77.6464C533.044 77.8445 533.479 78.1353 533.845 78.5023C534.211 78.8693 534.501 79.3052 534.699 79.7849C534.897 80.2646 534.998 80.7787 534.997 81.2977Z" fill="url(#paint20_linear)"/>
<path d="M548.563 81.2977C548.563 82.0788 548.332 82.8424 547.899 83.4919C547.466 84.1414 546.851 84.6476 546.13 84.9466C545.41 85.2455 544.618 85.3237 543.853 85.1713C543.089 85.0189 542.386 84.6428 541.835 84.0904C541.284 83.5381 540.908 82.8343 540.756 82.0682C540.604 81.302 540.682 80.5079 540.981 79.7863C541.279 79.0646 541.784 78.4477 542.432 78.0138C543.081 77.5798 543.843 77.3481 544.622 77.3481C545.667 77.3481 546.67 77.7643 547.409 78.5049C548.148 79.2456 548.563 80.2502 548.563 81.2977Z" fill="url(#paint21_linear)"/>
<path d="M562.041 81.2977C562.043 82.081 561.813 82.8472 561.38 83.4993C560.947 84.1515 560.331 84.6603 559.609 84.9612C558.887 85.2622 558.093 85.3419 557.326 85.1902C556.559 85.0384 555.854 84.6621 555.301 84.1089C554.747 83.5556 554.37 82.8503 554.217 82.0822C554.064 81.3141 554.142 80.5177 554.44 79.7939C554.739 79.07 555.246 78.4513 555.895 78.0159C556.545 77.5805 557.309 77.3482 558.091 77.3482C558.609 77.347 559.123 77.4483 559.602 77.6462C560.081 77.8442 560.517 78.1349 560.884 78.5018C561.251 78.8686 561.542 79.3044 561.74 79.7842C561.939 80.264 562.041 80.7783 562.041 81.2977Z" fill="url(#paint22_linear)"/>
<path d="M576.556 81.2977C576.556 82.0788 576.325 82.8424 575.891 83.4919C575.458 84.1414 574.843 84.6476 574.123 84.9466C573.402 85.2455 572.61 85.3237 571.845 85.1713C571.081 85.0189 570.379 84.6428 569.827 84.0904C569.276 83.5381 568.901 82.8343 568.749 82.0682C568.597 81.3021 568.675 80.5079 568.973 79.7863C569.271 79.0646 569.776 78.4477 570.425 78.0138C571.073 77.5798 571.835 77.3482 572.614 77.3482C573.132 77.347 573.645 77.4483 574.124 77.6464C574.603 77.8445 575.038 78.1353 575.404 78.5023C575.77 78.8693 576.06 79.3052 576.258 79.7849C576.456 80.2646 576.557 80.7787 576.556 81.2977Z" fill="url(#paint23_linear)"/>
<path d="M590.078 81.2973C590.078 82.077 589.848 82.8391 589.416 83.4878C588.985 84.1365 588.371 84.6427 587.653 84.9427C586.935 85.2426 586.144 85.3229 585.381 85.1734C584.617 85.0239 583.915 84.6513 583.362 84.1025C582.809 83.5537 582.431 82.8533 582.275 82.0896C582.119 81.3258 582.192 80.5329 582.485 79.8106C582.778 79.0883 583.277 78.469 583.921 78.0308C584.564 77.5925 585.323 77.3549 586.101 77.3478C586.621 77.3431 587.138 77.4418 587.62 77.6381C588.102 77.8345 588.541 78.1246 588.911 78.4919C589.281 78.8591 589.574 79.2961 589.774 79.7776C589.975 80.2591 590.078 80.7757 590.078 81.2973Z" fill="url(#paint24_linear)"/>
<path d="M603.6 81.2977C603.602 82.081 603.372 82.8472 602.939 83.4993C602.506 84.1515 601.89 84.6603 601.168 84.9612C600.446 85.2622 599.652 85.3419 598.885 85.1902C598.118 85.0384 597.413 84.6621 596.86 84.1089C596.307 83.5556 595.929 82.8503 595.776 82.0822C595.623 81.3141 595.701 80.5177 596 79.7939C596.298 79.07 596.805 78.4513 597.454 78.0159C598.104 77.5805 598.868 77.3482 599.65 77.3482C600.168 77.347 600.682 77.4483 601.161 77.6462C601.64 77.8442 602.076 78.1349 602.443 78.5018C602.81 78.8686 603.101 79.3044 603.299 79.7842C603.498 80.264 603.6 80.7783 603.6 81.2977Z" fill="url(#paint25_linear)"/>
<path d="M645.982 76.2285H658.494" stroke="white" stroke-width="2" stroke-linejoin="round"/>
<path d="M645.982 85.1846H666.538" stroke="white" stroke-width="2" stroke-linejoin="round"/>
<path d="M492.258 112.947H685.307" stroke="white" stroke-width="2" stroke-linejoin="round" stroke-dasharray="8 8"/>
<path d="M746.975 112.947H847.074" stroke="white" stroke-width="2" stroke-linejoin="round" stroke-dasharray="8 8"/>
<path d="M57.0044 126.381H157.104" stroke="white" stroke-width="2" stroke-linejoin="round" stroke-dasharray="8 8"/>
<path d="M743.4 45.7788H716.587" stroke="white" stroke-width="2" stroke-linejoin="round"/>
<path d="M743.4 37.7188H728.206" stroke="white" stroke-width="2" stroke-linejoin="round"/>
<path d="M549.457 252.658H522.645" stroke="white" stroke-width="2" stroke-linejoin="round"/>
<path d="M549.457 244.598H534.264" stroke="white" stroke-width="2" stroke-linejoin="round"/>
<path d="M308.146 67.2729H334.959" stroke="white" stroke-width="2" stroke-linejoin="round"/>
<path d="M308.146 59.2124H323.34" stroke="white" stroke-width="2" stroke-linejoin="round"/>
<path d="M48.0669 238.329H74.8792" stroke="white" stroke-width="2" stroke-linejoin="round"/>
<path d="M48.0669 230.269H62.3668" stroke="white" stroke-width="2" stroke-linejoin="round"/>
<path d="M834.785 164.667H822.72C821.236 164.667 820.038 164.524 820.038 166.011V249.3C820.038 250.786 821.236 253.33 822.72 253.33H834.785C836.269 253.33 837.466 250.786 837.466 249.3V166.011C837.466 164.524 836.269 164.667 834.785 164.667Z" fill="url(#paint26_linear)"/>
<path d="M789.204 188.328V226.991L820.038 246.156V169.163L789.204 188.328Z" fill="#171B26"/>
<path d="M786.523 179.444H728.876C727.395 179.444 726.195 180.647 726.195 182.131V235.866C726.195 237.35 727.395 238.553 728.876 238.553H786.523C788.004 238.553 789.204 237.35 789.204 235.866V182.131C789.204 180.647 788.004 179.444 786.523 179.444Z" fill="#171B26"/>
<path d="M725.525 195.341H710.331V224.895H725.525V195.341Z" fill="url(#paint27_linear)"/>
<path d="M760.381 239.224H742.506V265.196H760.381V239.224Z" fill="url(#paint28_linear)"/>
<path d="M820.262 247.284V188.176" stroke="white" stroke-width="2" stroke-linejoin="round"/>
<path d="M837.243 166.682V249.971C837.243 251.458 835.598 253.553 834.115 253.553H822.049C820.566 253.553 820.262 251.458 820.262 249.971V246.828L788.981 227.653V189L820.262 169.826V166.682C820.262 165.196 820.566 164.891 822.049 164.891H834.115C835.598 164.891 837.243 165.196 837.243 166.682Z" stroke="white" stroke-width="2" stroke-linejoin="round"/>
<path d="M787.193 179.22H729.1C727.619 179.22 726.419 180.423 726.419 181.907V235.642C726.419 237.126 727.619 238.329 729.1 238.329H787.193C788.674 238.329 789.874 237.126 789.874 235.642V181.907C789.874 180.423 788.674 179.22 787.193 179.22Z" stroke="white" stroke-width="2" stroke-linejoin="round"/>
<path d="M760.381 248.18H750.55" stroke="white" stroke-width="2" stroke-linejoin="round"/>
<path d="M760.381 256.24H750.55" stroke="white" stroke-width="2" stroke-linejoin="round"/>
<path d="M777.362 189.967H736.25V212.357H777.362V189.967Z" fill="url(#paint29_linear)"/>
<path d="M779.15 221.312H769.318" stroke="white" stroke-width="2" stroke-linejoin="round"/>
<path d="M779.149 229.373H737.144" stroke="white" stroke-width="2" stroke-linejoin="round"/>
<path d="M763.956 221.312H755.019" stroke="white" stroke-width="2" stroke-linejoin="round"/>
<path d="M710.331 195.341V224.895" stroke="white" stroke-width="2" stroke-linejoin="round"/>
<path d="M418.72 193.998L405.046 207.7" stroke="white" stroke-width="2" stroke-linejoin="round"/>
<path d="M434.754 194.633L447.437 207.332" stroke="white" stroke-width="2" stroke-linejoin="round"/>
<path d="M427.238 203.633L391.041 176.533H463.435L427.238 203.633Z" fill="url(#paint30_linear)"/>
<path d="M463.658 175.638H391.265V221.312H463.658V175.638Z" stroke="white" stroke-width="2" stroke-linejoin="round"/>
<path d="M914.748 163.1L901.074 176.802" stroke="white" stroke-width="2" stroke-linejoin="round"/>
<path d="M930.782 163.736L943.464 176.435" stroke="white" stroke-width="2" stroke-linejoin="round"/>
<path d="M923.266 173.184L887.069 146.084H959.462L923.266 173.184Z" fill="url(#paint31_linear)"/>
<path d="M959.686 145.188H887.292V190.863H959.686V145.188Z" stroke="white" stroke-width="2" stroke-linejoin="round"/>
<defs>
<linearGradient id="paint0_linear" x1="91.9742" y1="109.5" x2="66.3891" y2="109.052" gradientUnits="userSpaceOnUse">
<stop stop-color="#FF8B37"/>
<stop offset="1" stop-color="#FBC570"/>
</linearGradient>
<linearGradient id="paint1_linear" x1="196.428" y1="64.8546" x2="170.104" y2="49.1221" gradientUnits="userSpaceOnUse">
<stop stop-color="#276FFF"/>
<stop offset="1" stop-color="#99C5FF"/>
</linearGradient>
<linearGradient id="paint2_linear" x1="169.183" y1="107.494" x2="143.039" y2="105.834" gradientUnits="userSpaceOnUse">
<stop stop-color="#FF8B37"/>
<stop offset="1" stop-color="#FBC570"/>
</linearGradient>
<linearGradient id="paint3_linear" x1="170.51" y1="52.5854" x2="151.965" y2="14.5213" gradientUnits="userSpaceOnUse">
<stop stop-color="#276FFF"/>
<stop offset="1" stop-color="#99C5FF"/>
</linearGradient>
<linearGradient id="paint4_linear" x1="573.388" y1="257.382" x2="539.062" y2="254.411" gradientUnits="userSpaceOnUse">
<stop stop-color="#FF8B37"/>
<stop offset="1" stop-color="#FBC570"/>
</linearGradient>
<linearGradient id="paint5_linear" x1="767.331" y1="50.0551" x2="733.005" y2="47.0847" gradientUnits="userSpaceOnUse">
<stop stop-color="#FF8B37"/>
<stop offset="1" stop-color="#FBC570"/>
</linearGradient>
<linearGradient id="paint6_linear" x1="321.593" y1="72.1116" x2="286.358" y2="68.8938" gradientUnits="userSpaceOnUse">
<stop stop-color="#FF8B37"/>
<stop offset="1" stop-color="#FBC570"/>
</linearGradient>
<linearGradient id="paint7_linear" x1="61.0662" y1="244.958" x2="25.8319" y2="241.74" gradientUnits="userSpaceOnUse">
<stop stop-color="#FF8B37"/>
<stop offset="1" stop-color="#FBC570"/>
</linearGradient>
<linearGradient id="paint8_linear" x1="929.819" y1="56.9641" x2="875.809" y2="49.2083" gradientUnits="userSpaceOnUse">
<stop stop-color="#FF8B37"/>
<stop offset="1" stop-color="#FBC570"/>
</linearGradient>
<linearGradient id="paint9_linear" x1="1039.75" y1="56.9641" x2="985.74" y2="49.2083" gradientUnits="userSpaceOnUse">
<stop stop-color="#FF8B37"/>
<stop offset="1" stop-color="#FBC570"/>
</linearGradient>
<linearGradient id="paint10_linear" x1="985.231" y1="56.9641" x2="931.221" y2="49.2082" gradientUnits="userSpaceOnUse">
<stop stop-color="#FF8B37"/>
<stop offset="1" stop-color="#FBC570"/>
</linearGradient>
<linearGradient id="paint11_linear" x1="48.5869" y1="184.136" x2="-5.42246" y2="176.38" gradientUnits="userSpaceOnUse">
<stop stop-color="#FF8B37"/>
<stop offset="1" stop-color="#FBC570"/>
</linearGradient>
<linearGradient id="paint12_linear" x1="158.517" y1="184.136" x2="104.508" y2="176.38" gradientUnits="userSpaceOnUse">
<stop stop-color="#FF8B37"/>
<stop offset="1" stop-color="#FBC570"/>
</linearGradient>
<linearGradient id="paint13_linear" x1="103.999" y1="184.136" x2="49.9896" y2="176.38" gradientUnits="userSpaceOnUse">
<stop stop-color="#FF8B37"/>
<stop offset="1" stop-color="#FBC570"/>
</linearGradient>
<linearGradient id="paint14_linear" x1="230.151" y1="239.452" x2="190.097" y2="235.891" gradientUnits="userSpaceOnUse">
<stop stop-color="#FF8B37"/>
<stop offset="1" stop-color="#FBC570"/>
</linearGradient>
<linearGradient id="paint15_linear" x1="416.483" y1="106.445" x2="376.455" y2="102.887" gradientUnits="userSpaceOnUse">
<stop stop-color="#FF8B37"/>
<stop offset="1" stop-color="#FBC570"/>
</linearGradient>
<linearGradient id="paint16_linear" x1="624.536" y1="231.218" x2="604.301" y2="229.419" gradientUnits="userSpaceOnUse">
<stop stop-color="#FF8B37"/>
<stop offset="1" stop-color="#FBC570"/>
</linearGradient>
<linearGradient id="paint17_linear" x1="805.52" y1="49.819" x2="785.284" y2="48.0201" gradientUnits="userSpaceOnUse">
<stop stop-color="#FF8B37"/>
<stop offset="1" stop-color="#FBC570"/>
</linearGradient>
<linearGradient id="paint18_linear" x1="1115.2" y1="177.483" x2="1094.97" y2="175.684" gradientUnits="userSpaceOnUse">
<stop stop-color="#FF8B37"/>
<stop offset="1" stop-color="#FBC570"/>
</linearGradient>
<linearGradient id="paint19_linear" x1="611.125" y1="92.3492" x2="605.227" y2="57.1065" gradientUnits="userSpaceOnUse">
<stop stop-color="#276FFF"/>
<stop offset="1" stop-color="#99C5FF"/>
</linearGradient>
<linearGradient id="paint20_linear" x1="537.17" y1="86.9148" x2="525.685" y2="85.8938" gradientUnits="userSpaceOnUse">
<stop stop-color="#FF8B37"/>
<stop offset="1" stop-color="#FBC570"/>
</linearGradient>
<linearGradient id="paint21_linear" x1="550.737" y1="86.9148" x2="539.252" y2="85.8938" gradientUnits="userSpaceOnUse">
<stop stop-color="#FF8B37"/>
<stop offset="1" stop-color="#FBC570"/>
</linearGradient>
<linearGradient id="paint22_linear" x1="564.22" y1="86.9365" x2="552.709" y2="85.9132" gradientUnits="userSpaceOnUse">
<stop stop-color="#FF8B37"/>
<stop offset="1" stop-color="#FBC570"/>
</linearGradient>
<linearGradient id="paint23_linear" x1="578.729" y1="86.9148" x2="567.244" y2="85.8938" gradientUnits="userSpaceOnUse">
<stop stop-color="#FF8B37"/>
<stop offset="1" stop-color="#FBC570"/>
</linearGradient>
<linearGradient id="paint24_linear" x1="592.252" y1="86.9143" x2="580.767" y2="85.8933" gradientUnits="userSpaceOnUse">
<stop stop-color="#FF8B37"/>
<stop offset="1" stop-color="#FBC570"/>
</linearGradient>
<linearGradient id="paint25_linear" x1="605.779" y1="86.9365" x2="594.268" y2="85.9132" gradientUnits="userSpaceOnUse">
<stop stop-color="#FF8B37"/>
<stop offset="1" stop-color="#FBC570"/>
</linearGradient>
<linearGradient id="paint26_linear" x1="842.272" y1="272.048" x2="816.687" y2="271.6" gradientUnits="userSpaceOnUse">
<stop stop-color="#FF8B37"/>
<stop offset="1" stop-color="#FBC570"/>
</linearGradient>
<linearGradient id="paint27_linear" x1="729.715" y1="231.134" x2="707.45" y2="230.114" gradientUnits="userSpaceOnUse">
<stop stop-color="#FF8B37"/>
<stop offset="1" stop-color="#FBC570"/>
</linearGradient>
<linearGradient id="paint28_linear" x1="760.381" y1="267.793" x2="734.754" y2="247.29" gradientUnits="userSpaceOnUse">
<stop stop-color="#276FFF"/>
<stop offset="1" stop-color="#99C5FF"/>
</linearGradient>
<linearGradient id="paint29_linear" x1="777.362" y1="214.596" x2="759.965" y2="177.458" gradientUnits="userSpaceOnUse">
<stop stop-color="#276FFF"/>
<stop offset="1" stop-color="#99C5FF"/>
</linearGradient>
<linearGradient id="paint30_linear" x1="483.397" y1="209.354" x2="382.786" y2="185.413" gradientUnits="userSpaceOnUse">
<stop stop-color="#FF8B37"/>
<stop offset="1" stop-color="#FBC570"/>
</linearGradient>
<linearGradient id="paint31_linear" x1="979.425" y1="178.905" x2="878.814" y2="154.963" gradientUnits="userSpaceOnUse">
<stop stop-color="#FF8B37"/>
<stop offset="1" stop-color="#FBC570"/>
</linearGradient>
</defs>
</svg>
